<?xml version="1.0" encoding="UTF-8" standalone="no"?>
<svg
   xmlns:dc="http://purl.org/dc/elements/1.1/"
   xmlns:cc="http://creativecommons.org/ns#"
   xmlns:rdf="http://www.w3.org/1999/02/22-rdf-syntax-ns#"
   xmlns:svg="http://www.w3.org/2000/svg"
   xmlns="http://www.w3.org/2000/svg"
   xmlns:sodipodi="http://sodipodi.sourceforge.net/DTD/sodipodi-0.dtd"
   xmlns:inkscape="http://www.inkscape.org/namespaces/inkscape"
   viewBox="0 0 585.69489 763.43917"
   version="1.0"
   height="355"
   width="300"
   id="svg1926"
   sodipodi:version="0.32"
   inkscape:version="0.48.4 r9939"
   sodipodi:docname="Blank Map Africa 1932.svg"
   inkscape:output_extension="org.inkscape.output.svg.inkscape">
  <g id="all" style="fill:#cccccc;stroke:#ffffff;stroke-width:0.5;stroke-miterlimit:4">
  <path
     d="m 72.399001,124.44847 0,9.13977 c -1.149998,3.44999 -1.127417,3.49462 -3.427412,3.49462 l -20.698879,0 c -1.149998,0 -4.569883,-1.15 -4.569883,0 -1.149997,3.44999 -1.14247,6.90697 -1.14247,9.20696 l 0,11.49191 c 0,2.3 -0.05957,4.56989 -1.209675,4.56989 -2.299995,1.14999 -5.704826,1.19462 -6.854824,3.49461 -2.299995,2.3 -2.352145,3.40483 -2.352145,6.85483 1.149997,3.44999 0.05957,5.75697 1.209675,9.20697 0,2.29999 -4.62956,1.14247 -5.779558,1.14247 l -20.6988773,0 c -2.3,0 -6.91449995,-1.15753 -8.0645,1.14247 -1.14999,1.14999 -1.14247,3.48709 -1.14247,4.63708 0,-1.14999 1.14247,-2.27741 1.14247,-3.42741 2.3,1.15 1.19462005,3.41236 3.49462,5.71235 l 0,-2.28494 c 1.14999,2.3 3.43493,5.76451 2.28494,8.0645 -1.15,0 0.009,1.13495 -1.14247,2.28494 0,0.92731 -0.71847,1.82806 -1.00807,2.75537 0.32344,-0.48516 1.00807,-0.47043 1.00807,-0.47043 0,0 -0.47095,0.47127 -1.07527,0.80645 -0.0194,0.1114 -0.0671,0.22467 -0.0671,0.33602 0,-0.14365 -0.0314,-0.22595 0,-0.33602 -0.36469,0.19549 -0.78849,0.33602 -1.20967,0.33602 l 2.35203,2.28495 c 1.15,1.14999 1.14247,2.34461 1.14247,3.49461 0,4.59999 1.14248,6.89945 1.14248,10.34944 -1.15,5.75001 -5.77955995,11.45427 -5.77955995,17.20427 l 0.87365,0 c -0.7947,2.0809 -1.53999,4.161 -2.01612005,4.6371 0,2.3 -2.27741,4.5624 -3.42741,5.7124 -1.06574,1.0657 -3.065,1.1879 -3.3602,3.0242 0.26215,-0.6756 1.07526,-0.6721 1.07526,-0.6721 3.44999,1.15 4.56988,5.757 4.56988,9.207 1.15,0 2.28494005,-1.2021 2.28494005,-2.3521 l 0,2.3521 c 0,0 -1.14247005,-0.01 -1.14247005,1.1425 1.15000005,0 1.14247005,-0.01 1.14247005,1.1425 l 6.92202995,0 c 1.14999,0 1.13494,0.01 2.28494,-1.1425 1.1499943,-1.15 1.1349403,0.01 2.2849383,-1.1425 1.149997,0 2.344618,-0.01 3.494616,1.1425 0,0 -0.0086,1.1425 1.14247,1.1425 1.149998,-1.15 1.134944,1.1424 2.284941,1.1424 2.299995,0 3.48709,-2.3 4.637087,0 1.149997,1.15 -0.05957,1.1425 -1.209675,1.1425 -3.449992,1.15 -5.689772,0.01 -9.139765,-1.1425 -1.149997,-1.15 -1.202147,-0.01 -2.352145,1.1425 -1.1499973,0 -2.2774173,-1.15 -3.4274073,0 -2.3,1.15 -1.12742,2.2849 -3.42742,2.2849 l -2.35214,0 c -2.29999,0 -3.42741,-0.01 -3.42741,1.1425 0,1.15 -1.15,3.5022 0,2.3522 l 0,2.2849 c 0.93438,0 1.10963,-0.7786 1.14247,-1.6801 0.33471005,0.5865 1.56219005,1.1907 2.68816,1.2097 -0.50347995,0.2478 -1.04220995,0.4704 -1.54568995,0.4704 -1.15000005,-1.15 -1.13494005,-0.01 -2.28494005,1.1425 -1.15,0 0,1.1424 0,1.1424 l 2.28494005,0 c 1.14999995,-1.15 2.33708995,-1.1424 4.63707995,-1.1424 1.15,0 3.41989,0.01 4.56989,-1.1425 1.1499943,-1.15 2.3370883,-1.1425 4.6370833,-1.1425 l 11.290298,0 c -0.966084,0.1037 -0.940858,0.56 -0.940858,2.285 0,1.15 -2.352146,2.2849 -2.352146,2.2849 1.149998,1.15 2.352146,1.1274 2.352146,3.4274 0,1.15 -1.142471,1.2022 -1.142471,2.3522 -1.149997,0 -3.487089,-1.15 -4.637087,0 -1.149997,1.15 -2.277414,1.1424 -3.427411,1.1424 -1.149998,1.15 -1.134944,3.4124 -2.284942,5.7124 1.149998,0 1.134944,0.01 2.284942,-1.1425 -1.149998,1.15 -1.149998,2.3446 0,3.4946 0,0 -0.0086,-1.15 1.14247,0 0,0 -0.0086,-1.1424 1.142471,-1.1424 -1.149998,1.15 -1.134944,2.2774 -2.284941,3.4274 l 1.14247,0 c -1.149997,2.3 3.427412,2.2699 3.427412,4.5699 0,-1.15 1.142471,-1.1425 1.142471,-1.1425 0,1.15 -0.0086,1.1349 1.14247,2.2849 0.718751,0 1.02946,0.4815 1.411287,0.5377 -0.186236,0.3108 -0.201504,0.672 -0.201504,0.672 0.862492,0 1.090685,-0.036 1.14247,-0.5376 0.0172,1.435 0.152258,3.8128 1.142471,2.8225 -1.149998,1.15 1.14247,1.135 1.14247,2.285 l 0,1.1425 1.142471,0 -1.142471,1.1424 c 1.149998,0 2.277415,1.15 3.427412,0 0,-1.15 1.142471,-1.1349 1.142471,-2.2849 1.149997,-1.15 2.352145,-3.4199 2.352145,-4.5699 2.299995,-2.3 2.269888,-1.2097 4.569883,-1.2097 1.149997,0 1.127416,-1.1424 3.427411,-1.1424 l 3.494616,0 c 2.299995,1.15 3.427412,3.4795 3.427412,5.7795 l 1.142471,1.1425 c 1.149997,1.15 0,1.1349 0,2.2849 1.149997,1.15 2.284941,2.3446 2.284941,3.4946 0,2.3 -2.284941,3.4199 -2.284941,4.5699 l 2.284941,-1.1424 c 1.149997,-1.15 2.352145,-1.1425 2.352145,-1.1425 2.299995,0 2.284941,1.15 2.284941,0 1.149998,-1.15 1.134944,0 2.284942,0 1.149997,1.15 2.284941,3.4199 2.284941,4.5699 l 0,3.4946 c 0,1.15 0.0086,2.2774 -1.142471,3.4274 2.299995,-1.15 3.494616,-0.01 3.494616,1.1425 2.299995,0 2.277415,-1.135 3.427412,-2.285 0,-1.15 1.142471,-3.4424 1.142471,-1.1424 l 1.14247,0 c 1.149998,1.15 2.292468,3.4123 1.142471,5.7123 l 0,2.285 c 0,1.1499 -2.284941,1.2021 -2.284941,2.3521 0,1.15 1.134943,1.1425 2.284941,1.1425 -1.149998,2.3 4.637086,-0.015 4.637086,2.2849 0,2.3 1.134944,2.2774 2.284942,3.4274 1.149997,1.15 2.292468,3.4796 1.14247,5.7796 0,1.15 -1.14247,3.4199 -1.14247,4.5699 -1.149998,2.3 -0.01505,5.7946 2.284941,3.4946 0,-1.15 3.487089,-2.3522 4.637087,-2.3522 2.299994,0 4.554828,-2.2774 6.854823,-3.4274 1.61761,-0.8088 3.824401,-1.0712 5.779558,-1.1425 0,-1.15 2.277414,-1.15 3.427409,0 l 1.14247,0 c 0,-1.15 3.49462,-1.1424 3.49462,-1.1424 l 0.87365,0 c -1.00617,0.3089 -2.12107,0.7709 -3.15859,1.008 1.90212,-0.2721 3.81023,-1.008 5.71235,-1.008 1.15,-1.15 2.28494,1.1575 2.28494,-1.1425 l 0,1.1425 c 1.15,1.15 2.28494,1.1424 2.28494,1.1424 1.15,0 2.35215,-1.1349 2.35215,-2.2849 1.15,1.15 2.27741,3.4349 3.42741,2.2849 l 1.14247,0 c -1.15,-1.15 1.16505,-5.7198 -2.28494,-4.5698 0,-2.3 -1.14247,-3.4796 -1.14247,-5.7796 -1.15,-1.15 -1.14247,-4.6296 -1.14247,-5.7795 0,-2.3 1.14247,-4.5549 1.14247,-6.8549 1.15,-1.15 2.28494,-2.3371 2.28494,-4.6371 1.15,-1.15 2.27741,-1.1274 3.42741,-3.4274 0,-1.15 -1.14247,-3.4199 -1.14247,-4.5699 0,-1.15 -1.14247,-2.3446 -1.14247,-3.4946 0,-1.15 1.15,-2.2774 0,-3.4274 -1.15,0 -1.13494,-1.1349 -2.28494,-2.2849 0,-0.089 -0.0546,-0.1805 -0.0671,-0.2688 0.75585,0.9503 1.71623,1.9178 2.35214,2.5537 1.15,0 0,-2.2774 0,-3.4274 l 0,-4.6371 c -1.14999,-1.15 -1.14247,-2.2699 -1.14247,-4.5699 0,-1.15 1.15,-2.3446 0,-3.4946 3.45,1.15 6.89945,1.15 10.34944,0 2.3,0 6.90698,-0.01 9.20697,1.1425 l 3.4272,-2.2849 c 0.99748,0.019 1.59006,0.4884 2.28494,1.1424 0,1.15 0.009,1.2022 -1.14247,2.3522 0,1.15 2.34462,3.4199 3.49461,4.5698 1.15,1.15 -0.009,1.1275 1.14248,3.4275 0,0 -1.15,3.4871 0,4.637 -1.15,0 -1.14248,-0.01 -1.14248,1.1425 0,0 1.13495,-1.15 2.28495,0 l 0,2.285 c -1.15,1.15 0.009,4.637 -1.14247,4.637 0,1.15 2.28494,2.2775 2.28494,3.4275 0,1.15 0.009,1.1349 -1.14247,2.2849 l 0,2.2849 c 1.14999,1.15 0,2.3371 0,4.6371 -1.15,1.15 1.14247,1.135 1.14247,2.285 0,2.3 -2.29247,3.4795 -1.14247,5.7795 1.14999,1.15 1.13494,2.2774 2.28494,3.4274 1.14999,0 3.42741,1.135 3.42741,2.285 0.98727,-0.9873 2.80511,-1.8909 4.03225,-2.1506 -0.28751,0.1437 -0.53763,0.4331 -0.53763,1.0081 2.29999,0 3.41235,-1.1425 5.71235,-1.1425 l 3.49461,0 c 2.3,-1.15 -0.009,-5.772 1.14247,-6.922 l 0,-4.5699 c 0,-1.15 -1.14247,-3.4871 -1.14247,-4.6371 0,-2.3 1.14247,-4.5548 1.14247,-6.8548 l 0,-3.4946 c 0,-1.15 1.14248,-1.1425 1.14248,-1.1425 3.44999,-1.15 1.13494,-3.4199 2.28494,-4.5699 1.14999,-1.1499 1.14247,-1.1349 1.14247,-2.2849 1.14999,-1.15 2.28494,-1.2021 2.28494,-2.3521 1.15,-1.15 0,-2.2775 0,-3.4275 1.15,-1.1499 1.20215,0.01 2.35214,-1.1424 l 0,-3.4274 c -1.14999,-1.15 0.009,-2.3447 -1.14247,-3.4946 -1.14999,-1.15 -2.35967,-2.2775 -1.20967,-3.4275 0,0 1.15,-1.1349 0,-2.2849 1.15,1.15 1.20967,-4.6296 1.20967,-5.7796 0,-2.3 1.13495,-3.4795 2.28494,-5.7795 1.15,-1.15 1.13495,-2.2699 2.28495,-4.5699 0,-1.15 -0.009,-1.1349 1.14247,-2.2849 2.29999,-2.3 4.62203,-1.1425 6.92202,-1.1425 1.15,0 2.27742,-2.3522 3.42742,-2.3522 2.29999,1.15 3.48708,2.3522 4.63708,2.3522 2.3,0 4.56236,1.1199 5.71235,4.5699 1.15,1.15 2.3371,4.5924 4.63709,1.1424 l 1.14247,0 c 1.15,-1.15 2.27742,-1.1349 3.42741,-2.2849 2.3,-1.15 4.62204,2.2849 6.92203,2.2849 2.3,1.15 3.40483,3.4947 6.85483,3.4947 1.14999,-1.15 2.34461,-0.06 3.49461,-1.2097 0,-1.15 1.14247,-1.135 1.14247,-2.285 2.3,-2.3 5.76451,-2.2849 8.0645,-2.2849 3.44999,0 6.83977,-0.01 9.13976,1.1425 3.45,1.15 4.62204,2.3 6.92203,0 1.15,-1.15 2.33709,-2.2774 4.63709,-3.4274 1.15,0 1.14247,0.01 1.14247,-1.1425 l 2.28494,0 c 0,-2.3 -1.14247,-5.772 -1.14247,-6.922 0,-1.15 1.14247,-1.1425 1.14247,-1.1425 1.15,-1.15 1.13494,-2.285 2.28494,-2.285 1.15,-4.5999 3.47956,-8.0419 5.77956,-11.4919 2.29999,-2.3 3.41236,-4.6296 5.71235,-5.7796 0,-1.1499 2.28494,-3.4198 2.28494,-4.5698 1.15,-1.15007 1.20968,-3.47963 1.20968,-5.77963 l 0,-6.92202 c 0,-5.75001 1.14247,-10.31179 1.14247,-16.0618 0,-2.29999 2.28494,-3.47956 2.28494,-5.77955 l -3.42741,-3.42742 c -1.15,-1.14999 0,-1.13494 0,-2.28494 0,-1.15 -1.20968,-1.20215 -1.20968,-2.35214 -1.14999,-1.15 -2.28494,-2.26989 -2.28494,-4.56989 0,-4.59999 -1.13494,-9.18438 -2.28494,-12.63438 -1.15,0 -3.41988,1.13495 -4.56988,2.28494 -1.15,1.15 -2.35215,1.15 -2.35215,0 -2.29999,-2.29999 -5.75697,-4.62955 -9.20697,-5.77955 -3.44999,-1.15 -8.04191,-3.44247 -11.49191,-1.14247 -3.44999,2.29999 -8.04191,5.7645 -11.49191,8.0645 -8.05,4.59999 -16.07628,10.37898 -24.12629,16.12899 -3.44999,2.3 -6.90697,5.75698 -9.20697,9.20697 -2.29999,2.3 -4.6145,5.70483 -8.06449,6.85482 -3.45,0 -5.76451,-0.006 -8.0645,1.14248 l -3.42741,1.14247 c -3.45,0 -5.76451,1.20967 -8.0645,1.20967 -2.3,0 -1.14247,-2.34462 -1.14247,-3.49462 1.14999,-1.14999 0.009,-4.56235 -1.14247,-5.71235 -1.15,0 -3.41989,0.006 -4.56989,-1.14247 -1.14999,0 -1.20214,-1.20215 -2.35214,-2.35214 -1.15,-1.15 -1.13495,1.14247 -2.28494,1.14247 0,-1.15 -1.13495,-1.14247 -2.28494,-1.14247 -1.15,-1.15 0.009,-2.27742 -1.14247,-3.42742 -1.15,0 -2.28495,-1.14247 -2.28495,-1.14247 -1.14999,0 -1.20967,-1.14247 -1.20967,-1.14247 0,-2.29999 -1.12742,-3.48709 -3.42741,-4.63708 -10.34999,-8.05001 -20.69079,-16.07629 -32.19078,-24.12629 C 99.260039,142.56074 95.03493,139.47913 72.399001,124.44847 z m 37.970349,218.4808 -2.28494,0 c 1.14999,0 2.28494,1.15 2.28494,0 z m -97.714842,-56.3843 c -1.149997,0 -1.149997,1.2097 0,1.2097 z M 2.3050727,202.27088 c 0.0172,-0.009 0.0501,0.009 0.0671,0 0.0107,-0.0647 -0.0172,-0.13677 0,-0.2015 -0.0269,0.0542 -0.0488,0.1372 -0.0671,0.2015 z m 1.14247,-4.23386 c -1.15,0 -1.14247,1.13495 -1.14247,2.28494 1.14999,-1.14999 1.14247,-1.13494 1.14247,-2.28494 z m 0,70.16125 c 0.93991,0.9399 2.61003,1.8384 3.83063,2.1505 -0.11225,0.063 -0.25948,0.1344 -0.40322,0.1344 l -1.14247,0 c -1.15,0 -1.13495,-1.1425 -2.28494,-1.1425 -0.13291,0 -0.27028,0.04 -0.40323,0.067 0.24275,-0.2858 0.40323,-0.6574 0.40323,-1.2096 z m 5.37633,0 c 0.0809,-0.034 0.19226,0 0.33602,0 -0.14366,0 -0.22372,0 -0.33602,0.067 0.0151,-0.01 -0.0194,-0.059 0,-0.067 z m 62.4326573,51.6127 c -0.0043,0.043 0,0.088 0,0.1345 l -0.470429,0 c 0.177849,-0.015 0.326666,-0.063 0.470429,-0.1345 z"
     id="bf"
          sodipodi:nodetypes="ccsscssccccssccccccccccccccsccccscccccccsccccscccccsssccccccccscscscscscccccccccccccccsccccccssccscscccccssccccccsscsscccsscccccccccccccccscccssccccscsccccccsccccccscccscccccsccsssscsccccccccscccscsccccccccscscccscccccssscsscscscssccccccscccscccccccccccccccccccccccsssccccccccccc" />
  <path
     d="m 243.76959,65.779248 0,4.56988 0,1.14247 c 0,2.3 -3.41988,3.49462 -4.56988,3.49462 l -3.49462,3.42741 c -1.14999,2.29999 -3.42741,1.12742 -3.42741,3.42741 0,2.3 1.14247,3.48709 1.14247,4.63709 0,2.29999 -1.13494,3.41988 -2.28494,4.56988 0,1.15 -1.12741,2.34462 -3.42741,3.49462 0,0 -3.50214,1.13494 -2.35214,2.28494 2.29999,1.15 2.34461,3.412362 3.49461,5.712352 1.15,2.3 1.14247,4.62203 1.14247,6.92203 0,2.29999 -1.15,4.62203 0,6.92203 l 0,4.56988 c -1.15,2.29999 -1.15,4.62203 0,6.92203 1.15,3.44999 -2.34462,3.41235 -3.49461,5.71235 -2.3,2.29999 2.34461,5.77203 3.49461,6.92203 1.15,2.29999 1.14247,3.47956 1.14247,5.77955 0,1.15 1.13495,3.41989 2.28494,4.56989 1.15,1.14999 2.27742,0 3.42742,0 1.14999,0 2.34461,1.14247 3.49461,1.14247 3.44999,1.15 4.56236,2.32956 5.71235,5.77955 1.15,1.15 1.20215,2.27742 2.35215,3.42742 1.15,1.14999 3.41988,1.14247 4.56988,1.14247 4.59999,1.14999 8.04192,2.33709 11.49191,4.63708 1.15,1.15 2.27742,3.42742 3.42741,3.42742 2.3,-1.15 3.47957,-2.27742 5.77956,-3.42742 2.3,-2.29999 6.89945,-5.79461 10.34944,-3.49461 4.59999,2.29999 9.31736,4.3602 13.77685,6.92203 l 8.80375,5.04031 53.29289,0.73924 0,-28.76337 c -1.15,-9.20001 -1.14247,-17.28597 -1.14247,-25.33597 0,-4.59999 0.008,-8.03439 -1.14247,-12.63438 0,-3.44999 0.008,-5.75698 -1.14247,-9.20697 0,-2.300002 -2.29247,-4.554832 -1.14247,-6.854822 1.14999,-1.15 2.28494,-2.3371 2.28494,-4.63709 -1.15,-2.3 -2.29247,-3.41236 -1.14247,-5.71235 0,-1.15 1.14247,-1.20215 1.14247,-2.35215 1.15,-1.15 -1.13495,-3.42741 -2.28494,-3.42741 -1.15,-1.15 -3.47957,0 -5.77956,0 -2.29999,-1.15 -3.41236,-2.28494 -5.71235,-2.28494 0,0 -3.42741,0.015 -3.42741,-2.28494 0,-1.15 1.09032,-1.20215 -1.20968,-2.35215 -2.29999,-1.15 -3.41236,-2.28494 -5.71235,-2.28494 l -4.63709,0 c -2.29999,0 -2.26989,1.14247 -4.56988,1.14247 -3.44999,0 -9.20697,4.61451 -9.20697,8.0645 -1.15,1.15 -1.15,3.41988 0,4.56988 0,2.3 1.14247,3.48709 1.14247,4.63709 -1.15,3.44999 -4.61451,6.9145 -8.0645,8.0645 -3.44999,0 -5.6973,-3.48709 -7.99729,-4.63709 -2.3,-2.29999 -8.10912,-4.56988 -11.55912,-4.56988 -3.44999,-1.15 -6.83977,-0.0446 -9.13976,-3.49462 -2.3,-1.15 -3.49462,-2.26989 -3.49462,-4.56988 0,-1.15 0.0151,-3.41989 -2.28494,-4.56988 l -3.42741,0 c -2.3,-1.15 -3.48709,-2.34462 -4.63709,-3.49462 -2.29999,0 -3.41236,0.008 -5.71235,-1.14247 -2.3,-1.15 -3.47956,1.14247 -5.77956,1.14247 -2.29999,0 -3.41236,0.008 -5.71235,-1.14247 -1.15,-1.15 -3.48709,-2.28494 -4.63709,-2.28494 z"
     id="ly"
      />
  <g
     transform="matrix(1.15,0,0,1.15,-1352.4228,-529.92865)"
     class="land coast mg"
     id="mg"
     >
    <path d="m 1625,996 c 1,2 0,5 1,7 1,1 1,2 2,3 0,2 1,2 0,3 -1,1 -1,5 0,7 1,1 1,2 2,3 0,2 1,3 3,4 -2,-1 -1,0 0,0 0,1 1,0 2,1 1,0 2,2 4,2 2,1 5,-3 8,-4 1,0 2,1 3,0 0,0 1,0 1,0 1,-1 2,-2 2,-3 1,-1 1,-2 2,-3 0,-2 1,-3 2,-5 1,-2 2,-5 2,-8 1,-4 3,-8 5,-12 1,-4 1,-7 3,-10 0,-1 1,-3 1,-4 0,0 1,-2 1,-2 1,-2 1,-5 2,-7 1,-3 3,-6 3,-9 1,-3 -1,-7 2,-8 1,-1 2,-3 2,-3 0,-1 0,-2 0,-3 0,-1 -1,0 -1,-1 0,-1 -1,-7 1,-6 1,1 1,4 2,4 2,1 3,-3 3,-4 0,-2 -1,-2 -1,-4 -1,-2 -1,-4 -1,-6 0,-5 -1,-9 -3,-13 0,0 0,0 0,0 0,0 0,0 -1,-1 0,0 1,-1 0,-1 0,-1 -1,-3 -2,-2 0,-1 0,-1 0,-1 2,0 -1,-3 -1,0 0,1 -2,3 -3,3 2,1 1,3 0,5 0,2 0,3 -2,3 0,1 -1,0 -1,1 -1,1 -1,1 -1,2 0,0 -3,-4 -3,-1 0,1 0,2 1,3 0,0 -1,3 -1,1 0,1 -3,1 -1,3 0,1 2,1 1,2 1,-1 -1,-1 -2,0 -1,0 -1,2 -2,3 0,-1 1,-2 1,-3 -2,0 -1,1 -2,2 0,0 -1,1 -2,2 0,0 1,1 1,2 1,1 -1,1 -2,1 0,0 2,-2 0,-2 -1,0 -2,1 -3,1 0,1 -2,2 -1,2 0,1 -1,1 -1,2 1,0 1,0 1,1 0,0 -1,0 -1,-1 0,-2 -2,-2 -2,0 0,-1 -2,-1 -2,-1 -1,1 -1,2 -1,2 0,-1 -2,0 -2,1 0,-1 -1,-1 -1,-1 -1,0 -2,1 -3,2 0,0 -2,-1 -3,0 0,0 0,3 0,3 0,1 -1,2 -1,3 -1,2 -4,5 -3,7 1,1 0,3 0,5 0,1 1,3 1,5 0,1 0,2 1,4 1,1 1,2 0,3 0,1 1,2 0,3 0,1 -1,2 -2,3 -1,2 -2,3 -2,4 0,1 0,3 -1,4 -2,0 -3,0 -3,2 0,2 -1,3 -2,5"
       id="path2622"
        />
    <path 
       d="m 1667,921 c 1,-1 0,-2 0,-2 -1,1 -1,2 0,2"
       id="path2624"
        />
    <path 
       d="m 1679,950 c 0,-1 0,-1 0,-1 -1,1 -2,2 -1,3 0,-1 0,-2 1,-2"
       id="path2628"
        />
  </g>
  <path 
     class="land dz"
     d="m 72.427268,123.27136 c 0,-3.45 0,-8.05 0,-11.5 0,-3.45 4.6,-4.6 6.9,-6.9 1.15,-1.15 2.3,-2.3 3.45,-2.3 1.15,0 2.3,-1.15 3.45,-2.3 2.3,-1.150002 4.6,2.3 5.750001,-1.150002 0,-1.15 2.3,0 3.45,0 1.15,-1.15 3.45,-1.15 4.600001,-2.3 3.45,-1.15 3.45,-3.45 5.75,-5.75 1.15,0 3.45,0 4.6,-1.15 1.15,0 2.3,-2.3 3.45,-2.3 0,0 3.45,0 2.3,-2.3 0,0 -2.3,-1.15 0,-2.3 -2.3,-1.15 -1.15,-3.45 1.15,-3.45 2.3,0 4.6,0 4.6,-2.3 2.3,-4.6 12.65,-1.15 14.95,-1.15 -2.3,-1.15 3.45,-3.45 1.15,-4.6 -1.15,-1.15 -2.3,-1.15 -2.3,-2.3 -1.15,-1.15 -1.15,-2.3 -1.15,-3.45 -1.15,-2.3 0,-2.3 0,-3.45 0,-1.15 -1.15,-2.3 -1.15,-3.45 0,-1.15 1.15,-1.15 1.15,-2.3 0,-2.3 -2.3,-3.45 0,-4.6 -2.3,0 -1.15,-1.15 -1.15,-2.3 0,-1.15 -3.45,-2.3 -3.45,-3.45 2.3,0 3.45,-1.15 5.75,-2.3 1.15,0 2.3,0 2.3,-1.15 1.15,-1.15 1.15,-2.3 2.3,-2.3 0,0 1.15,-1.15 2.3,-1.15 0,1.15 1.15,0 2.3,-1.15 1.15,-1.15 3.45,2.3 4.6,0 1.15,-4.6 8.05,-5.75 11.5,-5.75 2.3,-1.15 5.75,-1.15 8.05,-1.15 2.3,0 3.45,-2.3 5.75,-1.15 0,0 0,0 0,-1.15 0,0 3.45,0 3.45,0 3.45,-1.15 5.75,0 8.05,-1.15 2.3,0 3.45,1.15 4.6,2.3 2.3,1.15 3.45,-1.15 4.6,-1.15 1.15,0 4.6,0 4.6,-1.15 0,-2.3 2.3,-1.15 3.45,0 1.15,0 3.45,1.15 4.6,0 1.15,-1.15 0,-1.15 2.3,-1.15 0,0 1.15,1.15 2.3,1.15 -1.15,1.15 1.15,1.15 2.3,0 1.15,0 3.45,0 4.6,0 0,2.3 -2.3,3.45 -3.45,4.6 3.45,0 0,4.6 1.15,6.9 1.15,3.45 0,5.75 -1.15,9.2 0,3.45 -3.45,5.75 -5.75,6.9 -1.15,1.15 0,4.6 0,5.75 1.15,1.15 1.15,3.45 3.45,4.6 3.45,1.15 2.3,5.75 4.6,6.9 1.15,1.15 3.45,2.3 4.6,3.45 1.15,1.15 1.15,3.45 1.15,5.75 1.15,3.45 2.3,8.05 2.3,12.65 0,1.15 -2.3,1.15 0,2.3 1.15,2.3 2.3,4.600002 2.3,6.900002 1.15,3.45 -1.15,8.05 1.15,12.65 1.15,1.15 0,2.3 0,4.6 -1.15,2.3 -1.15,4.6 0,6.9 1.15,3.45 -1.15,3.45 -3.45,5.75 -2.3,1.15 2.3,5.75 3.45,6.9 2.3,3.45 1.15,8.05 3.45,10.35 1.15,1.15 2.3,0 3.45,0 2.3,0 3.45,1.15 4.6,2.3 3.45,1.15 4.6,3.45 5.75,6.9 1.15,1.15 1.15,1.15 0,2.3 -2.3,1.15 -4.6,2.3 -6.9,3.45 -8.05,5.75 -16.1,11.5 -24.15,17.25 -4.6,2.3 -8.05,5.75 -11.5,8.05 -1.15,2.3 -2.3,3.45 -4.6,5.75 -1.15,1.15 -3.45,3.45 -5.75,4.6 -1.15,1.15 -3.45,1.15 -4.6,1.15 -2.3,1.15 -4.6,1.15 -6.9,2.3 -1.15,0 -11.5,3.45 -11.5,0 0,-1.15 1.15,-2.3 1.15,-3.45 0,-1.15 0,-3.45 0,-3.45 -2.3,-1.15 -3.45,-1.15 -5.75,-2.3 -1.15,0 -2.3,-2.3 -3.45,-2.3 -2.3,2.3 -3.45,-2.3 -4.6,-3.45 -1.15,0 -2.3,0 -3.45,-1.15 -1.15,-1.15 0,-2.3 0,-3.45 -1.15,-1.15 -2.3,-2.3 -3.45,-2.3 -2.3,-1.15 -3.45,-2.3 -5.75,-3.45 -3.45,-3.45 -8.05,-6.9 -12.65,-10.35 -16.1,-12.65 -32.2,-25.3 -49.450002,-36.8 -3.45,-3.45 -8.05,-5.75 -11.5,-9.2"
     id="dz"
      />
  <path 
     d="m 192.89605,257.37837 c -0.28751,0.036 -0.58615,0.1829 -0.87366,0.4704 -2.29999,0 -3.41236,1.1425 -5.71235,1.1425 -1.15,0 -3.48709,-0.01 -4.63709,1.1425 -1.14999,1.15 -2.28494,2.2774 -2.28494,3.4274 0,1.15 0.007,3.4871 -1.14247,4.6371 -2.29999,2.3 -2.28494,2.2698 -2.28494,4.5698 0,2.3 -0.0597,3.4796 -1.20967,5.7796 0,1.15 -1.15,2.2699 0,4.5699 0,0 1.20967,1.1349 1.20967,2.2849 l 0,2.3522 c 1.15,1.15 2.29999,3.4199 0,4.5698 -1.15,0 -1.15,1.135 0,2.285 0,1.15 -1.20215,2.2849 -2.35215,2.2849 -1.14999,1.15 -1.13494,2.3447 -2.28494,3.4946 -1.14999,1.15 0.007,3.4199 -1.14247,4.5699 0,0 -2.28494,-0.01 -2.28494,1.1425 -1.15,3.45 0.008,6.8994 -1.14247,10.3494 1.15,2.3 1.14247,6.9145 1.14247,8.0645 -1.15,2.3 0,2.2775 0,3.4275 0,2.2999 -1.14247,3.487 -1.14247,4.637 2.3,-1.15 4.56236,0.01 5.71235,-1.1424 0,0 -0.007,-1.1425 1.14247,-1.1425 1.15,1.15 2.34462,-1.1425 3.49462,-1.1425 -1.15,1.15 -2.33709,2.285 -4.63709,2.285 1.15,1.15 3.48709,0 4.63709,0 l 3.42741,0 c 3.44999,1.15 5.77203,4.5548 6.92203,6.8548 1.15,-1.15 1.13494,-1.1425 2.28494,-1.1425 -1.15,0 -2.28494,1.2022 -2.28494,2.3522 1.15,1.15 2.28494,-0.06 2.28494,-1.2097 l 0,1.2097 2.28494,0 c -1.14999,0 -5.73493,1.1349 -2.28494,2.2849 1.15,0 2.28494,-1.1425 2.28494,-1.1425 -1.14999,1.15 1.15753,1.1425 -1.14247,1.1425 -1.15,1.15 -1.14247,1.1349 -1.14247,2.2849 1.15,0 1.14247,-0.01 1.14247,1.1425 0,1.15 1.14247,2.2774 1.14247,3.4274 1.15,1.15 1.13495,2.3522 2.28495,2.3522 1.14999,1.15 2.35214,2.3 2.35214,0 0,3.45 1.14247,1.15 1.14247,0 1.15,1.15 -0.0151,1.1424 2.28494,1.1424 1.15,0 1.14247,-1.1424 1.14247,-1.1424 l 0,-1.1425 c 0.8625,1.725 1.08856,0.8079 1.14247,0.2688 l 0,2.0161 c 1.15,-1.15 -1.14999,-3.487 0,-4.637 0,1.15 1.13495,3.487 2.28495,4.637 0,-0.3988 -0.0192,-0.8108 -0.0672,-1.2096 0.0213,0.025 0.0429,0.043 0.0672,0.067 1.60999,0 1.52851,-1.1383 0.94085,-1.8145 0.97611,0.5982 0.704,0.672 2.55376,0.672 0.57501,0 0.86432,-0.058 1.00806,-0.2016 0.5548,0.949 3.76991,0.2016 4.70429,0.2016 3.45,0 2.29247,-1.1946 1.14248,-3.4946 1.14999,0 1.20214,1.1425 2.35214,1.1425 -1.15,0 0,1.1424 0,1.1424 1.15,-2.3 2.27742,-3.4199 3.42741,-4.5699 -0.87552,1.0596 -1.68995,2.5101 -2.28494,3.4275 0,0.2875 -0.063,0.6979 -0.13441,1.0752 -0.0338,0.065 -0.0334,0.1378 -0.0672,0.2016 -0.19441,1.0733 -0.27022,2.2178 1.34408,2.2178 l 0,-2.0161 c 0.054,0.539 0.27998,1.3889 1.14247,-0.3361 1.15,1.15 1.14247,3.4796 1.14247,5.7796 0.8625,0 1.69127,1.3168 2.55376,1.4785 0.9437,-0.6846 1.81451,-2.4459 1.81451,-3.3602 1.14989,1.15 1.80699,-6.392 2.88978,-8.6694 1.344,-3.151 2.89163,-4.4919 3.76343,-5.2419 l 7.32526,-6.3172 c 1.14999,0 2.35214,-0.8736 2.35214,-0.8736 l 2.28494,-2.285 c 0,-1.15 -0.008,-2.3521 1.14247,-2.3521 1.15,-2.3 -0.008,-3.4199 1.14247,-4.5699 2.3,-2.3 2.34462,-4.622 3.49462,-6.922 l 0,-3.4274 c 1.15,-1.15 1.14247,-1.135 1.14247,-2.285 2.3,0 3.42741,-1.1946 3.42741,-3.4946 0,0 2.3,-3.4274 0,-3.4274 1.15,-1.15 2.34462,-1.135 3.49462,-2.285 1.15,-1.1499 0,-2.3446 0,-3.4946 0,-2.3 2.28494,-2.2774 2.28494,-3.4274 0,-1.15 -0.008,-2.2774 1.14247,-3.4274 0,-1.15 2.26989,-6.922 4.56988,-6.922 1.15,0 5.78709,-2.2774 4.63709,-3.4274 -1.15,-2.3 1.15752,-5.7721 -1.14247,-6.9221 l -2.35215,0 c -1.14999,-1.15 0,-2.2774 0,-3.4274 0,-2.3 -2.27741,-4.622 -3.42741,-6.922 -1.15,-2.3 -2.26989,-4.5849 -4.56988,-2.2849 l -1.14247,0 c -1.15,0 -2.35215,1.1424 -2.35215,1.1424 -2.29999,1.15 -2.26988,3.4274 -4.56988,3.4274 -1.15,1.15 -3.48709,0.01 -4.63709,-1.1424 -1.14999,-1.15 -3.41235,-1.1425 -5.71235,-1.1425 -3.44999,0 -8.04944,-0.015 -10.34944,2.2849 l -3.42741,3.4947 -4.63709,0 c -2.29999,-1.15 -3.41988,-2.3522 -4.56988,-2.3522 0,0 -1.14247,0.01 -1.14247,-1.1425 0,0 -1.20967,0.01 -1.20967,-1.1424 -4.59999,-2.3 -5.68978,1.1424 -9.13977,1.1424 -1.15,0 -1.20215,2.2925 -2.35214,1.1425 -1.15,0 -1.14247,-1.1425 -1.14247,-1.1425 -1.15,-1.15 -2.27742,-3.4198 -3.42742,-4.5698 -1.14999,-1.15 -3.48709,0.01 -4.63708,-1.1425 -0.8625,-0.8625 -1.69127,-1.7207 -2.55376,-1.6129 z m 11.2903,90.9944 c 0.77692,-0.2188 0.20496,0.671 0.13441,1.5457 -0.16936,-0.4179 -0.38854,-0.859 -0.80645,-1.2769 0.2875,-0.1437 0.51257,-0.2239 0.67204,-0.2688 z m 2.15053,2.621 c -0.48516,0.054 -0.53763,0.28 -0.53763,1.1424 1.14999,0 1.20967,-1.1424 1.20967,-1.1424 -0.2875,0 -0.51032,-0.018 -0.67204,0 z"
     id="ng"
      />
  <path 
     class="land bw"
     d="m 316.22727,641.92137 c 0,-4.6 0,-10.35 1.15,-14.95 0,-2.3 0,-4.6 0,-6.9 0,-1.15 -1.15,-4.6 0,-5.75 1.15,-1.15 8.05,2.3 8.05,-2.3 0,-4.6 0,-9.2 0,-14.95 0,-4.6 1.15,-9.2 1.15,-13.8 0,-1.15 0,-3.45 0,-4.6 0,-1.15 0,-1.15 1.15,-1.15 4.6,0 8.05,-1.15 12.65,-2.3 1.15,0 4.6,-1.15 5.75,-1.15 1.15,1.15 2.3,3.45 2.3,5.75 2.3,-1.15 3.45,-3.45 4.6,-4.6 1.15,0 1.15,-1.15 2.3,-1.15 1.15,0 1.15,1.15 1.15,1.15 1.15,0 2.3,-1.15 2.3,-2.3 1.15,0 3.45,-1.15 4.6,0 0,0 0,1.15 0,1.15 1.15,2.3 1.15,3.45 2.3,4.6 1.15,1.15 1.15,2.3 2.3,4.6 1.15,1.15 1.15,1.15 1.15,2.3 1.15,3.45 3.45,5.75 5.75,8.05 3.45,1.15 5.75,1.15 5.75,5.75 2.3,-1.15 4.6,0 3.45,3.45 -1.15,1.15 0,2.3 0,3.45 1.15,1.15 1.15,2.3 2.3,3.45 0,1.15 2.3,1.15 2.3,1.15 2.3,0 3.45,0 5.75,1.15 1.15,0 0,0 0,2.3 1.15,1.15 2.3,1.15 3.45,2.3 -2.3,-1.15 -3.45,0 -4.6,2.3 -1.15,1.15 -3.45,0 -5.75,2.3 -1.15,1.15 -2.3,4.6 -4.6,4.6 -1.15,1.15 -1.15,1.15 -1.15,2.3 -2.3,0 -3.45,1.15 -3.45,2.3 -1.15,1.15 -2.3,1.15 -2.3,3.45 -1.15,2.3 -2.3,3.45 -3.45,5.75 -1.15,1.15 -3.45,1.15 -4.6,2.3 -1.15,0 -1.15,0 -1.15,1.15 0,2.3 -1.15,3.45 -2.3,5.75 0,2.3 -2.3,2.3 -4.6,2.3 -2.3,0 -4.6,2.3 -6.9,0 0,-1.15 -1.15,-1.15 -2.3,-1.15 -1.15,0 -1.15,0 -2.3,-1.15 -2.3,-2.3 -4.6,-3.45 -6.9,-1.15 -1.15,2.3 -1.15,4.6 -2.3,6.9 -1.15,1.15 -2.3,1.15 -3.45,2.3 -1.15,1.15 -1.15,2.3 -2.3,3.45 0,0 -1.15,0 -2.3,0 0,1.15 0,1.15 0,1.15 0,1.15 -1.15,1.15 -2.3,1.15 -1.15,0 -2.3,0 -3.45,0 -1.15,0 -2.3,-1.15 -3.45,0 -1.15,-3.45 2.3,-6.9 1.15,-10.35 -1.15,-2.3 -1.15,-4.6 -2.3,-6.9 -1.15,-1.15 -3.45,-2.3 -4.6,-3.45"
     id="bw"
      />
  <path 
     class="land ke" d="m 441.57727,405.02147 c 0,-1.15 0,-2.3 0,-4.6 0,-1.15 0,-2.3 0,-4.6 0,-2.3 1.15,-4.6 2.3,-6.9 1.15,-1.15 2.3,-4.6 4.6,-5.75 1.15,0 0,0 0,-1.15 0,-1.15 2.3,-2.3 2.3,-3.45 0,-1.15 0,-2.3 0,-3.45 1.15,-2.3 -1.15,-2.3 -1.15,-4.6 0,-2.3 -2.3,-3.45 -2.3,-4.6 0,-1.15 -1.15,-2.3 -1.15,-3.45 -1.15,0 -1.15,-1.15 -1.15,-1.15 0,-1.15 1.15,-1.15 1.15,-2.3 0,-1.15 -1.15,-1.15 -2.3,-1.15 -1.15,0 0,-1.15 -1.15,-1.15 0,-1.15 -1.15,-2.3 -1.15,-3.45 1.15,-1.15 1.15,-1.15 2.3,-2.3 2.3,-2.3 4.6,-1.15 6.9,-1.15 2.3,0 3.45,0 5.75,0 0,-1.15 1.15,-1.15 2.3,0 0,0 0,1.15 1.15,1.15 2.3,1.15 5.75,0 8.05,1.15 2.3,1.15 5.75,3.45 8.05,5.75 1.15,1.15 1.15,1.15 3.45,1.15 1.15,0 3.45,0 3.45,0 2.3,2.3 5.75,0 8.05,2.3 0,-1.15 1.15,-3.45 2.3,-4.6 1.15,-1.15 4.6,-2.3 6.9,-3.45 2.3,-1.15 2.3,1.15 4.6,2.3 1.15,1.15 2.3,0 3.45,0 1.15,0 2.3,1.15 3.45,0 -2.3,2.3 -3.45,5.75 -4.6,6.9 -2.3,2.3 -3.45,4.6 -3.45,6.9 0,8.05 0,14.95 0,23 0,5.75 -1.15,10.35 2.3,14.95 1.15,1.15 3.45,3.45 2.3,5.75 -1.15,1.15 -3.45,3.45 -4.6,2.3 -1.15,0 -1.15,0 -1.15,0 0,0 0,0 0,0 0,0 1.15,2.3 0,3.45 0,-2.3 -1.15,0 -1.15,0 0,1.15 -1.15,1.15 -2.3,2.3 -2.3,0 -3.45,2.3 -2.3,3.45 0,1.15 -1.15,3.45 -2.3,4.6 -1.15,0 -2.3,6.9 -3.45,5.75 1.15,2.3 -1.15,4.6 -2.3,6.9 -1.15,-1.15 0,0 -1.15,0 -1.15,0 -2.3,-2.3 -3.45,-2.3 -2.3,-2.3 -4.6,-4.6 -8.05,-6.9 0,0 -1.15,-1.15 -1.15,-2.3 -1.15,0 -2.3,0 -1.15,-1.15 2.3,-2.3 -1.15,-4.6 -2.3,-5.75 -5.75,-2.3 -10.35,-6.9 -16.1,-9.2 -2.3,-2.3 -5.75,-3.45 -8.05,-5.75 -1.15,-1.15 -3.45,-3.45 -5.75,-3.45"
     id="ke"/>
  <g
     transform="matrix(1.15,0,0,1.15,-1352.4228,-529.92865)"
     class="land coast sl"
     id="sl"
     >
    <path
       d="m 1202,739 c 0,0 0,0 0,0 1,1 2,1 3,1 0,0 0,-1 0,-1 -1,-1 -2,0 -3,0"
       id="path2896"
        />
    <path
       class="land sl"
       d="m 1199,726 c 1,0 2,0 3,0 0,0 0,-2 1,-2 1,0 2,-3 2,-4 1,-2 3,0 5,-1 1,-1 4,-1 6,0 1,0 1,2 2,3 1,1 1,1 1,2 0,1 0,1 0,2 1,0 1,0 1,1 0,0 0,1 1,2 0,1 -2,3 -2,4 0,0 2,-1 2,-1 2,-1 1,0 1,1 0,2 -2,1 -2,3 0,1 -1,1 -1,3 -1,1 -2,1 -3,2 -1,1 -2,2 -2,3 -1,1 -8,-3 -8,-3 1,0 0,-1 -1,-1 1,-1 2,-1 3,-1 -2,0 -4,0 -2,-2 -1,2 -2,0 -3,0 -1,0 -1,-3 -1,-4 -1,1 -3,0 -2,-2 0,1 1,1 1,1 -1,0 1,-2 2,-1 -1,-1 -1,-1 0,-1 -1,1 -2,0 -3,0 0,0 0,0 0,1 -1,-2 0,-3 1,-3 0,-1 -1,-1 -2,-2"
       id="path2902"
        />
  </g>
  <path
     class="land cd"
     d="m 250.67727,452.17147 c 0,0 2.3,0 2.3,-1.15 0,0 1.15,-3.45 0,-4.6 -1.15,-1.15 4.6,-4.6 5.75,-5.75 0,1.15 2.3,2.3 2.3,3.45 0,-1.15 1.15,-1.15 2.3,-2.3 1.15,0 0,-1.15 1.15,-2.3 1.15,1.15 3.45,-2.3 4.6,-1.15 2.3,1.15 0,1.15 0,2.3 0,1.15 1.15,2.3 1.15,3.45 0,-1.15 2.3,0 2.3,-1.15 2.3,0 2.3,-2.3 3.45,-3.45 1.15,-1.15 3.45,-2.3 3.45,-2.3 0,-1.15 1.15,-2.3 2.3,-2.3 3.45,-1.15 3.45,-6.9 3.45,-10.35 0,-2.3 0,-3.45 0,-5.75 0,-2.3 2.3,-2.3 3.45,-4.6 2.3,-3.45 2.3,-5.75 5.75,-8.05 2.3,-1.15 2.3,-2.3 3.45,-4.6 1.15,-1.15 1.15,-3.45 1.15,-5.75 0,-1.15 1.15,-8.05 1.15,-10.35 0,-2.3 1.15,-3.45 2.3,-5.75 0,-2.3 -1.15,-3.45 0,-5.75 0,-3.45 3.45,-6.9 4.6,-10.35 0,-1.15 0,-3.45 0,-5.75 0,-1.15 0,-2.3 0,-2.3 0,-1.15 -1.15,-2.3 -1.15,-2.3 0,-1.15 2.3,-1.15 2.3,-2.3 1.15,-2.3 1.15,-3.45 2.3,-4.6 1.15,-1.15 3.45,-2.3 4.6,-2.3 1.15,0 2.3,1.15 3.45,1.15 2.3,1.15 3.45,3.45 4.6,5.75 1.15,1.15 3.45,0 4.6,0 0,0 1.15,1.15 2.3,1.15 0,0 0,0 1.15,1.15 1.15,0 1.15,-1.15 2.3,-1.15 1.15,0 1.15,1.15 2.3,1.15 1.15,0 3.45,1.15 4.6,1.15 2.3,-1.15 1.15,-6.9 4.6,-6.9 2.3,0 2.3,3.45 4.6,1.15 1.15,-1.15 8.05,-2.3 8.05,-4.6 1.15,0 1.15,2.3 3.45,2.3 1.15,0 3.45,0 4.6,-2.3 0,-1.15 0,-1.15 1.15,-2.3 0,0 1.15,0 2.3,1.15 1.15,1.15 2.3,0 3.45,0 1.15,1.15 2.3,1.15 2.3,2.3 1.15,0 2.3,0 2.3,0 2.3,0 3.45,-2.3 5.75,-1.15 0,0 3.45,2.3 3.45,3.45 0,0 1.15,2.3 1.15,2.3 2.3,1.15 4.6,3.45 6.9,1.15 1.15,-1.15 2.3,-1.15 3.45,0 2.3,1.15 3.45,1.15 3.45,-1.15 1.15,-2.3 5.75,3.45 5.75,4.6 1.15,1.15 5.75,2.3 4.6,4.6 1.15,0 2.3,0 2.3,1.15 0,0 0,1.15 1.15,1.15 0,1.15 -1.15,2.3 -1.15,2.3 0,1.15 0,2.3 0,3.45 0,1.15 -1.15,2.3 -1.15,3.45 1.15,1.15 5.75,1.15 4.6,3.45 0,3.45 -4.6,6.9 -5.75,9.2 -2.3,1.15 -4.6,2.3 -4.6,4.6 -1.15,1.15 0,2.3 -1.15,3.45 -1.15,1.15 -1.15,3.45 -1.15,4.6 -1.15,1.15 -1.15,3.45 -1.15,4.6 0,1.15 0,3.45 -1.15,4.6 0,1.15 1.15,2.3 1.15,3.45 -1.15,1.15 -2.3,2.3 -3.45,3.45 -1.15,1.15 -1.15,2.3 -1.15,4.6 0,1.15 -1.15,1.15 -1.15,2.3 -1.15,2.3 0,3.45 1.15,5.75 1.15,1.15 1.15,1.15 1.15,3.45 0,1.15 0,2.3 0,3.45 0,3.45 2.3,5.75 1.15,9.2 0,3.45 0,5.75 1.15,9.2 1.15,2.3 0,3.45 0,4.6 0,2.3 0,4.6 1.15,5.75 1.15,2.3 4.6,3.45 5.75,6.9 1.15,3.45 2.3,6.9 3.45,9.2 -5.75,2.3 -10.35,2.3 -16.1,3.45 2.3,3.45 -3.45,5.75 -4.6,8.05 3.45,1.15 2.3,5.75 1.15,8.05 0,2.3 1.15,3.45 1.15,4.6 0,1.15 -1.15,2.3 -1.15,2.3 0,1.15 0,2.3 -1.15,3.45 0,2.3 -1.15,4.6 0,6.9 1.15,1.15 3.45,3.4499 4.6,4.5999 0,0 3.45,2.3 4.6,1.15 0,-2.3 1.15,-2.3 2.3,-2.3 0,3.45 0,6.9 0,9.2 0,1.15 0,3.45 0,3.45 -1.15,0 -1.15,-1.15 -1.15,-2.3 -1.15,-1.15 -4.6,4.6 -5.75,1.15 -1.15,-1.15 -1.15,-2.3 -2.3,-3.45 0,-1.15 -1.15,-1.15 -2.3,-2.3 0,-1.15 0,-3.45 -1.15,-3.45 -2.3,0 -2.3,-1.15 -3.45,-1.15 -1.15,0 -2.3,0 -3.45,-1.15 0,-1.1499 0,-2.2999 -1.15,-2.2999 -1.15,-1.15 -2.3,-5.75 -3.45,-2.3 -1.15,3.45 -2.3,2.3 -5.75,2.3 -2.3,0 -2.3,-1.15 -4.6,-1.15 0,0 -1.15,-1.15 -1.15,-1.15 -3.45,1.15 -3.45,-3.45 -2.3,-4.6 -2.3,0 -3.45,0 -5.75,1.15 -1.15,0 -2.3,1.15 -3.45,0 0,-1.15 1.15,-2.3 0,-3.45 -1.15,0 -2.3,0 -2.3,0 1.15,-2.3 -1.15,-1.15 -1.15,-1.15 -1.15,1.15 -2.3,1.15 -3.45,1.15 -1.15,-1.15 -2.3,0 -3.45,0 -1.15,1.15 -2.3,0 -3.45,0 0,0 -2.3,0 -2.3,0 0,1.15 -1.15,2.3 -2.3,2.3 0,-1.15 0,-2.3 -1.15,-3.45 0,-1.15 1.15,-1.15 2.3,-2.3 0,-2.3 -1.15,-5.75 -2.3,-8.05 -2.3,-2.3 -2.3,-3.45 -2.3,-6.9 0,-3.45 1.15,-5.75 0,-9.2 0,-1.15 -1.15,-2.3 -1.15,-3.45 1.15,-1.15 1.15,-2.3 1.15,-4.6 0,-2.3 -1.15,-2.3 -3.45,-2.3 -1.15,0 -3.45,1.15 -4.6,1.15 -3.45,0 -3.45,-1.15 -2.3,-4.6 -1.15,0 -2.3,0 -2.3,0 -1.15,1.15 0,1.15 -1.15,1.15 0,1.15 -4.6,0 -5.75,0 0,1.15 -1.15,2.3 -1.15,3.45 0,1.15 1.15,2.3 -1.15,2.3 1.15,1.15 0,3.45 0,4.6 0,0 -4.6,0 -4.6,0 0,-2.3 -3.45,0 -3.45,0 -1.15,0 -2.3,0 -2.3,0 -1.15,1.15 0,1.15 -1.15,1.15 0,0 0,-1.15 -1.15,-1.15 -1.15,1.15 -2.3,1.15 -2.3,1.15 -2.3,-1.15 -3.45,-5.75 -4.6,-6.9 0,-1.15 0,-1.15 -1.15,-1.15 0,-1.15 0,-2.3 0,-3.45 0,-1.15 -1.15,-3.45 -2.3,-4.6 0,-2.3 0,-3.45 0,-4.6 -1.15,-2.3 -2.3,-2.3 -3.45,-2.3 -5.75,0 -10.35,0 -14.95,1.15 -4.6,0 -9.2,0 -12.65,-1.15 -3.45,0 -6.9,4.6 -8.05,-1.15"
     id="cd"
      />
  <path
     d="M 256.59375 130.59375 C 256.22612 131.69669 255.38483 132.5413 254.875 133.3125 C 254.61582 134.02445 254.01227 134.55579 254.4375 135.40625 C 254.97225 135.941 254.9965 136.9965 255.53125 137.53125 C 256.066 138.066 256.59375 138.059 256.59375 138.59375 C 256.59375 139.1285 257.1215 139.684 257.65625 140.21875 C 257.65625 140.7535 258.184 140.75 258.71875 140.75 C 259.2535 141.28475 259.27425 141.809 260.34375 142.34375 L 268.34375 145.5625 C 269.41325 146.09725 271.02425 146.625 272.09375 146.625 C 273.698 147.15975 275.0555 146.8125 276.125 146.8125 L 276.9375 145.9375 L 276.65625 145.53125 L 278.4375 143.21875 L 279.40625 143.28125 L 280.5 141.875 L 279.59375 131.65625 L 277.46875 131.65625 C 276.934 131.65625 276.3785 132.1875 275.84375 132.1875 L 273.71875 132.1875 C 273.184 131.65275 271.566 133.27775 271.03125 133.8125 C 269.96175 134.34725 269.448 133.8125 267.84375 133.8125 C 266.77425 133.8125 266.757 133.27425 265.6875 134.34375 C 265.15275 134.8785 264.09725 135.40625 263.5625 135.40625 C 261.95829 135.941 260.35075 135.41325 259.28125 134.34375 C 258.21175 133.27425 257.66325 131.66325 256.59375 130.59375 z "
     transform="matrix(2.1505329,0,0,2.1505329,-29.732486,0)"
     id="somaliland" />
  <path
     d="m 286.5625,128.4375 c -1.0695,0.53475 -1.09025,1.625 -1.625,1.625 -1.0695,0.5347 -2.1215,0.52775 -2.65625,1.0625 -0.7301,0 -2.07807,0.36655 -2.6875,0.53125 L 280.5,141.875 l -1.09375,1.40625 -0.96875,-0.0625 -1.77876,2.32503 0.26853,0.39845 -0.80227,0.87027 -12.0625,14.4375 c -0.41958,0 -3.9234,-0.47195 -6.40625,0.40625 -1.61198,0.57017 -2.497,2.59889 -3.3125,2.59375 -1.13013,-0.007 -1.84249,0.0312 -2.03125,0.0312 -0.10402,0.10397 -0.17472,0.21732 -0.25,0.34375 -0.024,0.0406 -0.0399,0.0839 -0.0625,0.125 -0.0482,0.0864 -0.10863,0.16928 -0.15625,0.25 -0.0704,0.12284 -0.16141,0.2275 -0.25,0.3125 -0.0205,0.0196 -0.0403,0.0459 -0.0625,0.0625 -0.0179,0.0133 -0.0411,0.0204 -0.0625,0.0312 -0.0534,0.0256 -0.12203,0.0554 -0.1875,0.0625 -0.005,0.008 0.006,0.0248 0,0.0312 -0.83868,0.90461 -1.22705,2.39995 -1.625,3.59375 l -1.625,1.59375 c -0.53475,0.53475 0,1.618 0,2.6875 l 0,12.28125 c 0,1.0695 -0.507,2.14925 0.5625,3.21875 0.53475,0.53475 1.59375,1.618 1.59375,2.6875 1.0695,-1.0695 1.59375,-2.14575 1.59375,-3.75 0,1.0695 1.09025,-0.52775 1.625,-1.0625 0.53475,-0.53475 0.52775,-1.09025 1.0625,-1.625 1.0695,-1.0695 2.118,-2.6805 3.1875,-3.75 l 3.75,-3.71875 c 1.0695,-1.0695 2.14925,-1.618 3.21875,-2.6875 3.20851,-1.60425 5.32975,-3.73249 7.46875,-6.40625 1.0695,-1.60425 2.14925,-2.677 3.21875,-4.28125 1.0695,-1.0695 1.6215,-2.6805 2.15625,-3.75 1.0695,-1.60425 2.12155,-2.677 2.65625,-4.28125 0.53475,-1.60425 0.52425,-3.21175 1.59375,-4.28125 l 1.625,-3.1875 0,-1.625 c 0.53475,-0.53475 1.0625,-0.52775 1.0625,-1.0625 1.0695,-1.0695 1.059,-2.14929 1.59375,-3.21875 0.53475,-1.0695 1.09025,-1.58675 1.625,-2.65625 l 0,-3.75 c 0,-1.0695 2.125,0.007 2.125,-1.0625 -0.46119,0 -0.55443,-4.4e-4 -0.90625,-0.34375 0.24859,0.45328 -0.21957,0.81163 -0.6875,0.34375 0.53475,-0.53475 0.53475,-1.618 0,-2.6875 0,-1.0695 -0.005,-2.118 0.53125,-3.1875 0.53475,-0.53475 -1.59025,-1.09375 -2.125,-1.09375 z"
     transform="matrix(2.1505329,0,0,2.1505329,-29.732486,0)"
     id="so"
     sodipodi:nodetypes="cccccccccccsccccccccccccsssccsscccccccccccccscccccc" />
  <g
     transform="matrix(1.15,0,0,1.15,-1352.4228,-529.92865)"
     class="land coast gw"
     id="gw"
     >
    <path
       d="m 1177,705 c 0,0 0,0 0,0 0,0 -1,0 -1,0 0,0 1,0 1,0"
       id="path3430"
        />
    <path
       d="m 1177,702 c 1,0 1,0 0,-1 0,1 0,1 0,1"
       id="path3432"
        />
    <path
       d="m 1178,709 c 0,0 1,0 1,0 -1,-1 -2,-1 -1,0"
       id="path3434"
        />
    <path
       d="m 1179,702 c 0,0 -1,0 -1,0 0,1 2,1 1,0"
       id="path3436"
        />
    <path
       d="m 1179,705 c 0,0 0,0 0,1 0,0 1,0 1,-1 0,0 -1,0 -1,0"
       id="path3438"
        />
    <path
       d="m 1181,708 c 0,0 1,-1 1,-1 -1,0 -1,0 -1,1"
       id="path3440"
        />
    <path
       d="m 1185,708 c 0,-1 0,-1 -1,0 0,0 0,0 1,0"
       id="path3442"
        />
    <path
       class="land gw"
       d="m 1174,698 c 1,0 2,0 2,0 1,-1 2,-1 3,-1 2,0 4,0 5,-1 2,-1 3,-1 5,-1 3,0 5,0 8,0 0,1 1,2 0,3 -1,0 -2,0 -2,1 0,1 3,2 1,4 -1,1 -2,1 -3,1 -1,0 -3,1 -4,1 -2,1 -1,4 -3,5 0,-2 -1,-2 -2,-3 0,0 0,0 0,-1 -1,1 0,-3 2,-1 0,-2 -2,-1 -2,0 -1,-2 -1,-2 0,-3 2,0 2,1 3,1 0,0 -1,-1 0,-2 0,0 -1,0 -1,0 -1,1 -2,0 -2,0 -1,1 -1,1 -2,2 -1,0 -2,0 -2,0 0,-1 1,-2 2,-2 -2,0 -3,1 -4,1 -2,-1 -1,-3 0,-4 0,0 0,0 -1,0 0,1 0,1 -1,1 -1,0 -1,-1 -2,-1"
       id="path3444"
        />
  </g>
  <path
     class="land gh"
     d="m 116.12727,332.57147 c -1.15,-2.3 -1.15,-4.6 0,-6.9 1.15,-2.3 0,-3.45 1.15,-5.75 1.15,-1.15 3.45,-3.45 3.45,-5.75 1.15,-1.15 1.15,-4.6 0,-6.9 0,-1.15 -1.15,-1.15 -1.15,-2.3 0,0 0,-1.15 0,-2.3 0,-2.3 0,-3.45 0,-4.6 0,-2.3 0,-4.6 -1.15,-6.9 0,-1.15 -1.15,-1.15 0,-2.3 0,-1.15 1.15,-2.3 0,-3.45 5.75,1.15 10.35,0 14.95,1.15 1.15,0 3.45,-1.15 4.6,0 1.15,1.15 2.3,-1.15 2.3,-1.15 1.15,-1.15 3.45,-1.15 3.45,0 0,2.3 -1.15,3.45 1.15,4.6 1.15,1.15 2.3,2.3 2.3,4.6 0,1.15 0,1.15 0,1.15 -1.15,1.15 -1.15,3.45 0,4.6 -1.15,0 -1.15,0 -1.15,1.15 l 1.15,-1.15 c 1.15,1.15 1.15,2.3 1.15,3.45 0,1.15 0,4.6 -1.15,4.6 0,1.15 1.15,2.3 2.3,2.3 1.15,2.3 0,2.3 -1.15,3.45 0,1.15 1.15,3.45 0,4.6 -1.15,1.15 0,2.3 1.15,3.45 0,0 -1.15,2.3 -1.15,3.45 -1.15,1.15 -1.15,2.3 0,4.6 1.15,0 2.3,1.15 3.45,2.3 l 2.3,1.15 c 0,1.15 -1.15,1.15 -2.3,2.3 0,1.15 -1.15,2.3 -2.3,2.3 0,0 0,-2.3 -1.15,-2.3 0.1716,0.5744 2.1976,0.8267 -2.3,2.3 -3.45,0 -5.75,2.3 -8.05,4.6 -2.3,1.15 -3.45,1.15 -5.75,1.15 -1.15,1.15 -2.3,1.15 -3.45,2.3 -1.15,0 -1.15,1.15 -2.3,1.15 -1.15,1.15 -1.15,1.15 -2.3,0 -1.15,-1.15 -2.3,-1.15 -3.45,-1.15 -1.15,-1.15 -3.45,-1.15 -4.6,-2.3 1.15,0 2.3,0 3.45,0 -1.15,-1.15 1.15,-5.75 -2.3,-4.6 0,-2.3 -1.15,-4.6 -1.15,-6.9"
     id="gh"
     sodipodi:nodetypes="csccccssccccscscsccccscccscccccccccccccsccccc" />
  <path
     class="land ug"
     d="m 402.47727,407.32147 c 1.15,-2.3 1.15,-4.6 1.15,-5.75 0,-2.3 0,-4.6 1.15,-5.75 0,-2.3 1.15,-4.6 1.15,-5.75 1.15,-1.15 0,-1.15 0,-2.3 1.15,-1.15 2.3,-1.15 2.3,-2.3 2.3,-2.3 4.6,-4.6 6.9,-6.9 1.15,-1.15 2.3,-3.45 3.45,-4.6 0,-1.15 -2.3,-2.3 -2.3,-2.3 -1.15,0 -2.3,1.15 -2.3,0 -1.15,-1.15 0,-2.3 0,-3.45 0,-2.3 -1.15,-4.6 1.15,-6.9 0,0 -1.15,0 -1.15,-1.15 1.15,-1.15 1.15,-1.15 2.3,-2.3 0,0 1.15,0 1.15,0 1.15,0 2.3,1.15 3.45,1.15 0,0 1.15,-2.3 2.3,-1.15 1.15,1.15 1.15,2.3 2.3,2.3 0,-1.15 2.3,-2.3 3.45,-2.3 1.15,0 3.45,-1.15 4.6,-1.15 2.3,0 2.3,2.3 4.6,1.15 1.15,-1.15 2.3,-3.45 3.45,-4.6 1.15,1.15 1.15,2.3 1.15,3.45 1.15,0 0,1.15 1.15,1.15 2.3,1.15 2.3,1.15 2.3,2.3 -1.15,3.45 1.15,4.6 2.3,6.9 0,1.15 1.15,2.3 1.15,3.45 0,1.15 1.15,2.3 1.15,2.3 0,2.3 0,4.6 0,5.75 -1.15,1.15 -2.3,2.3 -1.15,3.45 0,1.15 -2.3,2.3 -2.3,2.3 -1.15,0 -1.15,2.3 -2.3,3.45 0,1.15 -1.15,1.15 -2.3,2.3 0,1.15 0,2.3 -1.15,3.45 0,1.15 0,11.5 0,11.5 -8.05,0 -17.25,1.15 -25.3,0 -2.3,0 -5.75,0 -8.05,2.3 0,1.15 -1.15,3.45 -2.3,2.3 0,0 0,-1.15 -1.15,-1.15 0,0 -1.15,1.15 -1.15,1.15 0,-1.15 0,-2.3 -1.15,-2.3"
     id="ug"
      />
  <g
     transform="matrix(1.15,0,0,1.15,-1351.2728,-406.87865)"
     class="land coast mz"
     id="mz"
     >
    <path
       d="m 1566,886 c 0,-1 1,-1 0,-2 0,1 0,1 0,2"
       id="path3382"
       />
    <path
       d="m 1574,861 c 0,-1 0,-1 -1,-1 0,0 1,1 1,1"
       id="path3384"
       />
    <path
       class="land mz"
       d="m 1529,827 c 5,-2 11,-4 16,-6 2,0 3,-1 4,-1 0,0 2,-1 3,-1 0,0 0,1 0,1 1,1 2,3 3,4 0,-1 2,-1 3,-1 1,0 2,-1 3,0 1,1 1,5 0,7 -1,2 -2,4 -1,6 0,1 0,2 0,2 1,1 1,1 2,2 0,1 2,2 3,3 1,1 0,1 0,2 -1,1 1,1 2,0 0,-2 -1,-3 -2,-4 2,-1 1,-3 3,-4 3,0 3,-2 3,-4 0,-1 0,-3 0,-4 0,-1 1,-3 0,-5 0,-1 -2,-3 -3,-4 -1,-2 -2,-3 -3,-5 -1,-1 -2,-1 -3,-1 -1,-2 0,-5 0,-6 -1,-2 -1,-4 -1,-5 0,-1 1,-3 1,-3 1,-2 1,-2 2,-2 2,0 4,0 6,0 1,-1 2,-2 3,-1 1,0 1,1 2,2 0,0 2,0 3,0 1,0 2,-2 3,-1 3,3 5,0 7,-2 0,-1 1,-1 2,-1 2,1 2,1 4,0 1,-1 2,-1 4,-1 1,0 2,-1 3,-2 2,-1 3,-2 5,-3 2,-1 3,1 1,2 1,0 1,0 1,0 -1,1 0,2 -1,3 0,1 -1,1 0,2 0,0 0,3 0,4 0,1 0,2 0,2 0,1 0,1 0,2 0,1 0,1 0,1 0,1 0,1 1,2 0,1 0,2 -1,3 2,0 -1,4 0,5 1,0 0,5 1,6 1,-1 -1,2 0,2 0,-1 1,-1 1,1 0,1 0,2 -1,3 0,0 0,0 0,0 -1,0 0,0 0,1 -1,0 -1,1 -1,1 1,-1 0,2 0,2 -1,2 -3,3 -4,5 0,1 -2,2 -3,4 0,1 -5,3 -5,4 0,1 -3,1 -4,2 -1,0 -1,0 -2,1 -1,0 -1,0 -2,0 -1,1 -3,2 -4,3 -2,0 -4,4 -5,2 3,4 -4,5 -4,8 0,0 -1,0 -1,-1 0,1 -1,3 -1,1 -1,1 -3,2 -4,4 -1,1 -2,2 -3,3 0,1 -2,3 -3,2 -1,0 -1,-2 -2,-2 2,0 1,2 1,3 1,0 1,1 0,2 0,0 0,0 0,0 0,1 0,1 0,2 0,2 1,1 2,3 0,0 1,1 1,3 0,0 -1,3 0,1 -1,2 1,4 1,5 0,1 0,2 0,4 0,0 0,1 0,2 1,-1 1,-2 1,-3 0,0 0,3 1,1 -1,1 -1,2 -1,3 0,1 1,2 1,3 -1,3 -3,6 -2,9 -1,-2 1,0 1,-2 1,2 -1,5 -2,6 -2,2 -5,3 -8,4 -3,1 -6,2 -8,4 -1,1 -3,2 -3,3 -1,1 -1,2 -3,3 1,0 3,3 4,1 0,2 0,6 -1,6 l -5,0 c 0,-1 0,-3 0,-4 0,-1 -1,-3 -1,-4 -1,0 -1,-1 0,-2 0,-1 0,-3 0,-4 0,-2 0,-4 0,-5 0,-2 0,-3 0,-4 -1,-3 -2,-4 -3,-7 0,-1 1,-2 0,-3 0,-1 0,-3 -1,-4 0,-2 1,-3 3,-5 1,-1 5,-7 6,-6 -1,-1 0,-2 0,-4 1,-1 0,-2 1,-2 1,-1 2,-2 2,-4 1,0 1,-1 1,-2 1,-1 0,-1 0,-2 0,0 0,0 -1,0 0,-2 0,-3 1,-5 0,-1 -2,-1 -2,-2 1,-1 3,-1 2,-2 0,-2 1,-1 1,-3 0,-1 -1,-2 0,-3 0,-1 0,-2 0,-2 0,-1 0,-2 0,-2 0,-1 0,-1 0,-1 0,-1 0,-2 0,-2 0,0 -1,-1 -1,-1 0,-1 1,-2 1,-3 -1,0 -2,0 -2,-1 0,-1 -3,-1 -4,-1 -2,0 -3,-1 -3,-2 -1,0 -1,0 -2,-1 0,0 -1,0 -1,-1 -1,0 -2,1 -3,0 -1,0 -2,0 -3,0 -2,0 -1,-3 -1,-4 0,-2 -2,-3 -1,-5"
       id="path3462"
        />
    <path
       d="m 1601,839 c 0,0 0,0 1,-1 0,1 -1,1 -1,2 0,-1 0,-1 0,-1"
       id="path3466"
        />
  </g>
  <g
     transform="matrix(1.15,0,0,1.15,-1352.4228,-529.92865)"
     class="land ao"
     id="ao"
     >
    <path
       d="m 1390,954 c 0,-4 1,-7 0,-11 0,0 0,-1 0,-1 1,-1 1,-2 2,-2 0,-1 0,-2 0,-2 0,-1 1,-2 1,-2 -1,-2 1,-5 1,-6 1,-2 0,-4 1,-5 1,-1 1,-4 1,-4 1,-1 2,-3 3,-4 1,-1 0,-3 3,-3 1,-1 1,-2 2,-3 2,-4 3,-9 2,-12 -1,-2 -1,-3 -2,-5 -1,-1 -1,-2 -2,-4 0,-1 -1,-1 -1,-2 0,-1 0,-2 0,-3 -1,-1 -2,-3 0,-4 -1,1 -1,1 -1,2 0,-1 1,-1 1,-2 1,-1 2,0 2,-1 0,-2 -1,-4 -1,-6 -2,-2 -2,-4 -3,-6 0,-1 0,-2 0,-2 -1,-2 -2,-3 -3,-4 0,-1 -2,-4 -1,-5 1,0 2,0 3,0 1,0 2,-1 3,-2 6,0 12,1 18,0 2,0 4,0 6,0 2,0 2,2 3,3 0,1 0,2 0,3 1,2 1,3 2,4 0,1 -1,2 0,3 1,1 1,1 2,3 0,0 2,4 3,3 1,0 4,1 4,1 -1,-1 3,-2 4,-2 1,1 3,1 5,1 0,-1 1,-3 0,-4 1,0 1,-1 1,-1 0,-2 1,-3 1,-4 1,0 3,0 5,0 1,0 0,0 1,-1 0,0 1,0 2,0 -1,3 -2,4 1,4 2,0 5,0 7,0 2,0 1,2 1,3 0,1 -1,1 -1,2 0,1 1,2 1,4 1,2 0,5 0,8 0,2 1,3 2,5 1,2 2,5 1,7 0,1 0,1 -1,2 0,1 1,2 1,3 1,0 2,-1 2,-2 1,0 3,0 4,1 1,0 2,-1 4,-1 1,0 3,0 3,-1 1,1 1,3 1,4 0,1 -1,1 -1,2 0,1 0,2 0,3 -1,1 1,3 0,4 0,2 -1,3 0,5 -3,1 -7,0 -10,0 -1,0 -3,0 -4,0 -2,0 -1,5 -1,7 0,3 0,7 0,10 0,3 -1,7 0,10 0,3 2,4 4,6 2,3 4,5 6,7 -4,1 -9,2 -13,3 -2,0 -2,0 -4,0 -1,0 -1,0 -2,0 -1,1 -2,0 -3,0 -4,-1 -8,-1 -12,-1 -1,-1 -2,-2 -3,-3 -1,-2 -3,-1 -4,-1 -9,1 -19,0 -28,0 -2,0 -2,0 -4,-1 -2,-2 -3,-3 -5,-2 -2,0 -4,2 -6,2 -1,-1 -2,0 -4,0"
       id="path3888"
        />
    <path
       d="m 1392,848 c 2,-1 3,-4 5,-4 0,0 0,-1 1,-1 1,0 2,1 2,2 -1,1 -2,2 -4,3 0,1 0,1 0,1 0,1 0,3 0,4 0,1 -3,2 -3,0 0,-1 1,-1 0,-2 0,-1 -1,-2 0,-3 0,0 0,0 -1,0"
       id="path3890"
        />
  </g>
  <path
     class="land zm"
     d="m 335.77727,555.67137 c 0,-9.2 0,-18.4 0,-27.6 0,-1.15 -1.15,-3.45 1.15,-3.45 1.15,0 2.3,0 3.45,0 4.6,0 9.2,1.15 12.65,0 -1.15,-2.3 0,-3.45 0,-4.6 1.15,-2.3 0,-3.45 0,-5.7499 0,-3.45 1.15,-6.9 0,-10.35 1.15,0 1.15,1.15 2.3,1.15 2.3,0 1.15,2.3 1.15,3.45 1.15,1.15 1.15,0 3.45,0 1.15,-1.15 3.45,-1.15 5.75,-1.15 -1.15,1.15 -1.15,3.45 0,4.6 1.15,1.15 2.3,0 3.45,1.15 1.15,0 2.3,1.15 4.6,1.15 2.3,0 4.6,1.15 5.75,-2.3 1.15,-3.45 2.3,1.15 3.45,2.3 1.15,0 1.15,1.15 1.15,2.2999 1.15,2.3 2.3,0 3.45,1.15 1.15,0 2.3,1.15 3.45,1.15 2.3,1.15 1.15,3.45 2.3,4.6 2.3,1.15 2.3,2.3 3.45,4.6 1.15,2.3 4.6,-2.3 5.75,-1.15 0,1.15 0,2.3 0,2.3 1.15,0 1.15,-2.3 1.15,-3.45 0,-2.3 0,-5.75 0,-9.2 0,0 -1.15,0 -1.15,0 -1.15,0 -1.15,1.15 -1.15,2.3 -2.3,1.15 -4.6,-1.15 -5.75,-2.3 -2.3,-3.4499 -4.6,-4.5999 -3.45,-9.1999 1.15,-2.3 1.15,-3.45 2.3,-5.75 0,-1.15 -1.15,-3.45 -1.15,-5.75 1.15,-2.3 2.3,-6.9 -1.15,-8.05 1.15,-2.3 6.9,-4.6 4.6,-8.05 4.6,-1.15 9.2,-2.3 14.95,-2.3 1.15,0 1.15,0 2.3,1.15 0,1.15 1.15,2.3 3.45,2.3 2.3,0 2.3,1.15 3.45,2.3 0,1.15 0,1.15 1.15,1.15 1.15,-1.15 1.15,0 1.15,1.15 2.3,0 4.6,0 4.6,1.15 1.15,1.15 1.15,1.15 2.3,1.15 1.15,0 2.3,1.15 2.3,2.3 0,1.15 2.3,1.15 3.45,3.45 0,0 -1.15,1.15 -1.15,1.15 1.15,1.15 1.15,1.15 2.3,2.3 0,0 1.15,2.3 1.15,2.3 0,2.3 -1.15,3.45 -2.3,3.45 -2.3,1.15 -1.15,2.3 -1.15,2.3 1.15,2.3 0,3.45 0,4.6 0,2.3 -1.15,8.0499 2.3,9.1999 -2.3,1.15 -5.75,1.15 -5.75,3.45 0,2.3 1.15,2.3 0,3.45 0,2.3 0,3.45 -1.15,4.6 0,0 -1.15,1.15 -1.15,1.15 0,1.15 1.15,1.15 2.3,2.3 0,0 0,1.15 0,1.15 1.15,0 1.15,-2.3 2.3,0 -5.75,2.3 -12.65,4.6 -18.4,6.9 -2.3,1.15 -5.75,1.15 -8.05,2.3 -2.3,1.15 4.6,6.9 0,6.9 -1.15,0 -1.15,0 -2.3,0 -1.15,-1.15 -3.45,0 -4.6,1.15 -2.3,0 -4.6,1.15 -5.75,3.45 0,1.15 0,2.3 0,3.45 -1.15,1.15 -2.3,1.15 -3.45,2.3 -2.3,1.15 -5.75,2.3 -6.9,4.6 -1.15,2.3 -5.75,10.35 -9.2,9.2 -1.15,-1.15 -1.15,-1.15 -2.3,-1.15 -1.15,-1.15 -2.3,1.15 -3.45,0 -1.15,0 -1.15,-1.15 -2.3,-1.15 -1.15,-1.15 -2.3,0 -3.45,-1.15 -2.3,-2.3 -4.6,-2.3 -6.9,-2.3 -2.3,0 -4.6,0 -5.75,1.15 -1.15,0 -2.3,0 -3.45,0 -2.3,-2.3 -4.6,-4.6 -6.9,-6.9 -1.15,-1.15 -2.3,-2.3 -3.45,-3.45 -1.15,-1.15 -1.15,-2.3 -1.15,-4.6"
     id="zm"
      />
  <path
     class="land et"
     d="m 432.37727,316.47147 c 0,-1.15 1.15,-1.15 1.15,-3.45 0,-2.3 2.3,-2.3 4.6,-2.3 1.15,1.15 2.3,1.15 3.45,0 1.15,-2.3 1.15,-4.6 1.15,-5.75 -1.15,-2.3 -1.15,-4.6 0,-6.9 0,-1.15 1.15,-2.3 1.15,-3.45 0,-1.15 0,-2.3 0,-3.45 0,-1.15 0,-2.3 1.15,-3.45 1.15,-1.15 2.3,0 2.3,1.15 1.15,0 3.45,-3.45 2.3,-4.6 -1.15,-1.15 0,-2.3 0,-3.45 1.15,-1.15 0,-2.3 1.15,-3.45 1.15,-2.3 2.3,-4.6 3.45,-5.75 0,-1.15 1.15,-2.3 2.3,-2.3 l 2.3,0 c 1.15,-2.3 1.15,-4.6 1.15,-5.75 0,-1.15 0,-2.3 1.15,-3.45 0,-1.15 0,-3.45 1.15,-4.6 0,-3.45 1.15,-2.3 4.6,-2.3 0,0 1.15,-2.3 2.3,-1.15 1.15,0 1.15,2.3 2.3,3.45 1.15,-3.45 2.3,-5.75 2.3,-8.05 l 1.15,1.15 c 1.15,1.15 2.3,0 2.3,1.15 1.15,2.3 2.3,2.3 3.45,1.15 1.15,0 2.3,0 2.3,0 0,0 0,-1.15 1.15,-1.15 0,0 1.15,1.15 1.15,2.3 2.3,-2.3 4.6,0 6.9,0 2.3,-1.15 4.6,1.15 6.9,2.3 2.3,1.15 3.45,4.6 5.75,6.9 1.15,1.15 2.3,1.15 3.45,3.45 1.15,1.15 1.15,2.3 2.3,3.45 2.3,1.15 3.45,2.3 2.3,5.75 -2.3,2.3 -4.6,4.6 -3.45,8.05 0,2.3 -1.15,4.6 2.3,4.6 1.15,0 2.3,-1.15 4.6,-1.15 1.15,-1.15 1.15,1.15 2.3,0 0,2.3 -2.3,3.45 -1.15,5.75 1.15,1.15 1.15,3.45 2.3,4.6 1.15,1.15 2.3,1.15 2.3,2.3 0,1.15 1.15,2.3 2.3,3.45 0,1.15 1.15,1.15 2.3,1.15 1.15,1.15 1.15,2.3 3.45,3.45 5.75,2.3 11.5,4.6 17.25,6.9 2.3,1.15 5.75,2.3 8.05,2.3 3.45,1.15 6.35485,0.40321 8.65485,0.40321 l -25.96163,31.05578 c -0.90232,0 -8.41485,-1.02071 -13.7543,0.86788 -3.46661,1.22616 -5.37079,5.59413 -7.12455,5.58308 -2.43038,-0.0153 -3.95844,0.0401 -4.36437,0.0401 -1.15,1.15 -1.15,3.45 -3.45,2.3 -2.3,0 -3.45,1.15 -5.75,0 0,-1.15 -1.15,-2.3 -2.3,-3.45 -1.15,0 -2.3,2.3 -3.45,2.3 -1.15,0 -3.45,1.15 -4.6,2.3 0,1.15 0,2.3 -1.15,2.3 0,1.15 -1.15,1.15 -1.15,2.3 -1.15,-1.15 -3.45,-1.15 -5.75,-1.15 -1.15,0 -1.15,-1.15 -2.3,-1.15 -1.15,0 -2.3,0 -3.45,0 -4.6,0 -8.05,-5.75 -11.5,-8.05 -2.3,0 -5.75,0 -8.05,0 -1.15,0 -2.3,-2.3 -2.3,-3.45 -1.15,-1.15 0,-3.45 0,-4.6 -1.15,-1.15 -3.45,-2.3 -4.6,-1.15 l -1.15,-2.3 c -1.15,-2.3 -2.3,-4.6 -2.3,-5.75 -1.15,-1.15 -1.15,-3.45 -2.3,-4.6 0,0 0,-1.15 -1.15,-1.15 0,0 0,-1.15 -1.15,-1.15 l 0,0 c -1.15,-1.15 -1.15,-2.3 -2.3,-2.3 -1.15,-1.15 -1.15,-3.45 -2.3,-4.6 -1.15,-1.15 -3.45,-1.15 -4.6,-1.15 -1.15,-1.15 -2.3,-1.15 -3.45,-2.3"
     id="et"
     sodipodi:nodetypes="csccccssscscccscsccccccsccccccssccccscccsscccccccssccccscccssscscccsccccccscc" />
  <path
     class="land eh"
     d="m -2.3227273,188.82136 c -1.15,-2.3 1.15,-6.9 1.15,-9.2 0,-1.15 1.15000005,-3.45 1.15000005,-4.6 1.14999995,-2.3 3.44999995,-2.3 4.59999995,-4.6 0,-1.15 0,-2.3 1.15,-3.45 1.15,0 0,-1.15 1.15,-2.3 0,-1.15 3.4499953,-4.6 2.3,-6.9 0,1.15 0,1.15 -1.15,2.3 1.15,-3.45 5.7499953,-5.75 8.0499953,-8.05 2.3,-3.45 2.3,-6.9 3.45,-10.35 1.15,-3.45 2.3,-6.9 5.75,-9.2 3.45,-2.3 5.75,-3.45 6.9,-6.9 1.15,-2.3 1.15,-5.75 4.6,-5.75 3.45,0 6.9,0 10.35,0 5.75,0 10.35,0 14.95,0 2.3,0 4.6,0 8.05,0 1.15,0 2.3,0 2.3,2.3 0,3.45 0,6.9 0,10.35 0,1.15 0,4.6 -1.15,4.6 -2.3,0 -4.6,0 -6.9,0 -5.75,0 -10.35,0 -14.95,0 -1.15,0 -5.75,-1.15 -5.75,0 -1.15,1.15 -1.15,4.6 -1.15,5.75 0,5.75 0,10.35 0,14.95 0,1.15 0,3.45 0,4.6 -2.3,1.15 -4.6,1.15 -6.9,2.3 -2.3,1.15 -3.45,3.45 -3.45,6.9 0,1.15 2.3,10.35 0,11.5 -2.3,0 -3.45,0 -5.75,0 -4.6,0 -9.2,0 -13.8,0 -4.5999953,0 -8.0499953,0 -12.64999525,0 -2.30000005,0 -2.30000005,3.45 -2.30000005,5.75"
     id="eh"
      />
  <path
     d="m 283.15123,161.88119 c -0.8625,-0.10774 -1.69127,0.75041 -2.55376,1.6129 -2.3,1.15 -4.62203,2.35214 -6.92203,2.35214 l 0,2.28494 c 1.15,3.45 2.28494,5.76451 2.28494,8.0645 l 0,5.71236 c 1.15,1.14999 2.34462,2.33709 3.49462,4.63708 0,1.15 -1.15,1.13495 0,2.28494 0,1.15 1.14247,1.14247 1.14247,1.14247 1.15,2.3 2.29247,3.41989 1.14247,4.56989 -2.3,3.44999 -2.28494,9.24406 -2.28494,13.84405 0,4.59999 -0.0596,10.31179 -1.20968,16.06179 0,3.45002 -2.26236,6.90702 -5.71235,9.20702 -2.29999,3.45 -5.7645,8.0419 -8.0645,11.4919 0,1.15 0.009,3.4946 -1.14247,3.4946 0,1.15 0.009,1.135 -1.14247,2.285 0,0 -1.14247,-0.01 -1.14247,1.1425 1.15,2.3 1.13494,4.622 2.28494,6.922 1.15,2.3 2.26989,6.8623 4.56988,5.7123 3.45,0 1.19463,2.3371 3.49462,4.6371 0,0 1.13494,-0.01 2.28494,1.1425 l 0,3.4274 c 0,1.15 1.14247,1.1425 1.14247,1.1425 1.15,1.15 1.14247,2.2849 1.14247,2.2849 l 0,3.4946 c 0,1.15 -1.14247,2.285 -1.14247,2.285 0,4.6 2.32957,10.3344 5.77956,12.6344 0,0 -1.20215,1.1424 -2.35215,1.1424 -1.14999,-1.15 -1.13494,-1.1424 -2.28494,-1.1424 -2.29999,1.15 -4.55483,0 -6.85482,0 -1.15,0 -2.35215,1.2021 -2.35215,2.3521 -1.14999,1.15 -0.009,3.4199 1.14247,4.5699 l 3.49462,3.4274 c 2.29999,1.15 3.41988,2.3371 4.56988,4.6371 1.15,1.15 2.28494,3.4123 2.28494,5.7123 2.10273,3.3698 1.42331,1.7288 0,5.7796 -2.29999,1.15 -2.26988,4.622 -4.56988,6.922 0,1.15 0.009,2.2774 -1.14247,3.4274 -1.15,1.15 -2.28494,1.135 -2.28494,2.285 0,1.15 1.14247,1.1349 1.14247,2.2849 l 0,2.3522 0,3.4274 1.14247,1.1424 c 0,2.3 -0.009,4.6221 1.14247,6.9221 2.3,1.15 1.12742,3.4199 3.42741,4.5699 -3.44999,0 3.49462,6.9145 3.49462,8.0645 1.15,1.15 3.42741,1.1274 3.42741,3.4274 1.15,2.3 1.14247,3.4795 1.14247,5.7795 l -1.14247,2.285 c 0,1.15 1.15,2.2774 0,3.4274 -2.29999,-2.3 -4.61451,-3.4274 -8.0645,-3.4274 -1.15,1.15 -2.27741,-1.1425 -3.42741,-1.1425 l -3.42741,0 -9.20697,0 c -1.16488,-0.3808 0.0897,-1.3665 -3.49462,-1.1425 l -4.56988,0 -5.77956,0 c -3.44999,-1.15 -3.42741,1.1199 -3.42741,4.5699 0,1.15 1.15,5.772 0,6.922 0,2.3 -8.04944,1.1425 -10.34944,1.1425 l -3.42741,0 c 0,0 -1.14247,-1.15 -1.14247,0 -1.05417,1.0542 -0.22095,3.0186 -0.0671,4.2339 -0.23585,-0.7704 -1.27868,-0.8065 -2.28494,-0.8065 -1.14999,1.15 -0.009,1.2022 1.14247,2.3522 1.15,2.3 2.33709,2.2849 4.63709,2.2849 -1.15,0 -2.28494,-0.01 -2.28494,1.1425 0,-1.15 -2.35215,-1.15 -2.35215,0 0,-1.15 -1.14247,-1.135 -1.14247,-2.285 -1.14999,1.15 0,4.5624 0,5.7124 -0.85193,1.7039 -2.31264,2.7899 -3.02418,4.1666 -0.0998,-0.3253 -0.40323,-0.672 -0.40323,-0.672 l 0,1.1425 c 0.11613,0 0.19613,-0.046 0.26882,-0.067 -0.14839,0.377 -0.26882,0.7626 -0.26882,1.2097 0,-1.15 -1.14247,-2.3 -1.14247,0 0,1.1499 3.41989,8.0198 4.56988,4.5698 0,1.15 -1.14247,1.135 -1.14247,2.285 1.15,0 1.14247,0.01 1.14247,-1.1425 1.15,1.15 1.14247,1.2022 1.14247,2.3521 l -2.28494,0 0,2.285 c 2.3,0 2.28494,-0.01 2.28494,1.1425 0,0 -1.13494,-1.1425 -2.28494,-1.1425 1.15,1.15 2.33709,4.5623 4.63709,5.7123 2.29999,2.3 5.70482,4.6145 6.85482,8.0645 1.15,2.3 3.48709,4.6221 4.63709,6.9221 l 1.14247,0 c 1.15,1.15 4.56235,3.472 5.71235,6.922 0,1.15 1.20215,4.5849 2.35215,2.2849 1.15,-1.15 2.27741,-2.2849 3.42741,-2.2849 0,-1.15 1.13494,-1.2097 2.28494,-1.2097 1.15,-3.45 2.34462,2.3 3.49462,0 0,1.15 2.28494,2.3446 2.28494,3.4946 1.15,-1.15 2.28494,-1.1349 2.28494,-2.2849 1.15,-1.15 -0.009,-2.3521 1.14247,-2.3521 1.15,1.1499 3.48709,-1.1425 4.63709,-1.1425 1.14999,0 1.14247,1.1349 1.14247,2.2849 -1.15,0 0,2.3446 0,3.4946 0,-1.15 2.27741,0.01 3.42741,-1.1424 1.15,-1.15 1.13494,-2.3447 2.28494,-3.4946 1.15,-1.15 2.34462,-1.135 3.49462,-2.285 0,-1.15 1.13494,-1.1349 2.28494,-2.2849 2.29999,-1.15 3.42741,-5.7645 3.42741,-8.0645 1.15,-3.45 -0.009,-5.757 1.14247,-9.207 0,-1.15 2.28494,-2.2699 2.28494,-4.5699 1.15,-1.15 2.35215,-2.3446 2.35215,-3.4946 2.29999,-3.45 4.56235,-3.4124 5.71235,-5.7123 3.44999,-3.45 2.28494,-5.757 2.28494,-9.207 1.15,-1.15 1.20968,-2.2774 1.20968,-3.4274 l 0,-3.4946 c 0,-2.3 1.14247,-3.4199 1.14247,-4.5699 0,-2.3 1.14247,-3.4796 1.14247,-5.7796 0,-2.3 -0.009,-4.5548 1.14247,-6.8548 1.14999,-2.3 3.42741,-5.7645 3.42741,-8.0645 l 0,-2.2849 0,-4.6371 c 0,-1.15 -1.14247,-2.2774 -1.14247,-3.4274 1.15,-1.15 2.28494,0.01 2.28494,-1.1425 0,-1.15 1.20215,-2.3446 2.35214,-3.4946 1.15,-1.15 3.41236,-4.5774 5.71236,-3.4274 2.29999,1.15 4.62956,2.2698 5.77955,4.5698 1.15,1.15 -0.0151,2.3522 2.28495,2.3522 l 3.42741,0 c 2.29999,2.3 3.47956,1.1425 5.77955,1.1425 2.3,0 5.77204,2.2849 6.92203,2.2849 1.15,-1.15 1.14247,-2.2774 1.14247,-3.4274 l 2.28494,-2.3522 c 1.15,-2.3 2.27742,-1.0903 3.42742,1.2097 1.14999,0 3.47956,-2.3521 5.77955,-2.3521 1.15,0 3.41989,-1.135 4.56989,-2.285 0,-1.15 1.13494,-0.01 2.28494,1.1425 l 3.49461,0 c 1.15,-1.15 2.28494,-1.1349 2.28494,-2.2849 0,-1.15 1.14247,-2.285 1.14247,-2.285 2.3,0 2.3371,2.2925 4.63709,1.1425 1.15,0 2.27742,1.1425 3.42741,1.1425 1.15,0 1.14247,1.1424 1.14247,1.1424 l 1.14247,0 2.28495,0 c 1.14999,-2.3 3.48708,-1.15 4.63708,0 0,-1.15 -1.13494,-2.2699 -2.28494,-4.5699 0,-1.15 -0.0596,-2.3446 -1.20967,-3.4946 -1.15,-1.15 -2.27742,-1.1424 -3.42742,-1.1424 -2.29999,-1.15 -1.14247,-2.2775 -1.14247,-3.4275 -2.29999,-1.15 -2.29246,-1.1349 -1.14247,-2.2849 0,-1.15 -2.28494,-2.3446 -2.28494,-3.4946 l -2.35214,-2.285 c -1.15,0 -2.27742,-1.1424 -3.42742,-1.1424 -1.14999,-1.15 -2.28494,-2.2774 -2.28494,-3.4274 0,-1.15 1.15,-2.3447 0,-3.4947 -2.29999,0 -2.27741,-1.1349 -3.42741,-2.2849 -1.15,-1.15 -2.34462,-1.1425 -3.49461,-1.1425 -3.45,0 -1.13495,-3.4274 -2.28495,-3.4274 -2.29999,-1.15 -4.62955,-1.1424 -5.77955,-1.1424 l 0,-2.3522 -1.14247,0 c 0,-2.3 2.35214,-2.2699 2.35214,-4.5699 0,-2.3 -0.0596,-4.622 -1.20967,-6.922 -1.15,-2.3 -2.26989,-3.4124 -4.56988,-5.7124 -0.64689,-0.6468 -0.94226,-1.6587 -1.68011,-2.4193 0.18581,0.033 0.38447,0.067 0.53763,0.067 0,-1.15 1.15,-2.2774 0,-3.4274 0,-1.15 -1.14247,-1.135 -1.14247,-2.285 -1.14999,0 -2.28494,-1.1349 -2.28494,-2.2849 0,-1.15 1.15,-2.3446 0,-3.4946 0,-1.15 -1.20967,-3.4199 -1.20967,-4.5699 1.15,-1.15 0.009,-1.1425 -1.14247,-1.1425 -1.15,0 -2.28494,1.15 -2.28494,0 -1.15011,-1.15 -1.14258,-2.3446 -1.14258,-3.4946 1.15,-1.15 3.42741,-2.2699 3.42741,-4.5699 -2.3,-4.6 0.0523,-4.622 2.35215,-6.922 -1.15,-1.15 -2.3,-4.5699 0,-4.5699 1.14999,-1.15 -0.009,-1.1349 1.14247,-2.2849 1.14999,-1.15 1.13494,-2.3522 2.28494,-2.3522 1.14999,-2.3 -2.30752,-4.5624 1.14247,-5.7124 2.29999,-1.15 5.7645,-1.15 8.0645,0 l -1.14247,-37.90313 -64.44879,-36.82788 c -1.14999,-1.14999 -2.27741,-1.20215 -3.42741,-2.35214 -0.2875,-0.28751 -0.58615,-0.4345 -0.87365,-0.47043 z m -62.36546,242.00218 c 0,-1.15 0.009,-1.1349 -1.14247,-2.2849 0,1.15 -0.009,2.2849 1.14247,2.2849 z"
     id="td"
sodipodi:nodetypes="scccscccccsccccccscccsccsccccscccccccssscccccccccccscccccscscccccccccccccccsccccccccccccccccccccsccssccccccccsssssccscssscscsccccscccsccscccccsccccccscssccccsssccccsccscccccscccccssccc" />
  <g
     class="land coast tn"
     id="tn"
     transform="matrix(1.15,0,0,1.15,-1317.9228,-478.17865)"
     >
    <path
       class="land tn"
       d="m 1329,465 c 0,-1 1,-1 2,-2 0,0 0,-1 2,-2 1,0 1,-2 1,-3 1,-1 2,-3 1,-4 0,0 0,0 0,-2 0,-1 -1,-2 -1,-3 1,-2 2,-5 0,-5 1,-1 2,-2 3,-3 0,0 0,-1 0,-1 1,0 2,0 2,-1 1,-1 2,-1 4,-2 1,0 2,-1 2,0 1,0 0,0 1,1 0,0 0,0 0,-1 1,0 2,0 2,2 1,0 0,0 1,1 0,0 0,1 0,1 0,0 0,1 1,1 1,-1 2,-1 2,-2 1,0 1,-1 2,-1 1,1 1,2 0,2 -1,2 -4,4 -4,5 0,2 1,3 2,4 2,1 2,1 3,3 0,3 -2,6 -4,8 -2,1 -5,2 -3,5 0,1 1,2 2,2 1,1 1,0 2,0 0,0 0,1 0,2 1,0 2,-2 2,-1 1,0 1,1 1,1 0,1 1,2 0,2 1,0 2,0 3,0 0,1 -1,4 0,5 0,1 1,2 -1,3 -1,0 -3,1 -4,2 0,1 -1,1 -1,1 -1,0 -1,1 -1,2 -2,1 -3,1 -3,4 1,1 1,3 0,5 -1,2 -2,3 -5,4 0,-4 -1,-7 -2,-11 -1,-3 -1,-5 -4,-7 -1,-1 -2,-2 -2,-4 -1,-1 -1,-2 -3,-3 0,0 -1,-1 -1,-1 -1,-1 -1,-2 -1,-3 -1,-1 -1,-2 -1,-4"
       id="path5410"
        />
    <path
       d="m 1353,469 c 0,-1 -1,-1 -1,-1 0,-1 0,-2 1,-2 2,0 1,2 0,3"
       id="path5412"
        />
  </g>
  <path
     class="land na"
     d="m 246.07727,567.17137 c 1.15,0 2.3,-1.15 3.45,-1.15 1.15,0 2.3,1.15 3.45,1.15 2.3,-1.15 4.6,-3.45 6.9,-3.45 2.3,1.15 3.45,3.45 5.75,4.6 2.3,1.15 4.6,0 6.9,0 6.9,0 13.8,0 20.7,0 2.3,0 5.75,0 8.05,0 2.3,0 2.3,0 4.6,2.3 1.15,2.3 3.45,1.15 5.75,2.3 2.3,0 5.75,0 8.05,0 1.15,0 2.3,1.15 3.45,1.15 1.15,0 2.3,0 3.45,0 1.15,0 1.15,0 2.3,0 1.15,1.15 3.45,0 4.6,0 5.75,-1.15 11.5,-3.45 18.4,-4.6 1.15,0 2.3,0 3.45,0 1.15,0 2.3,1.15 2.3,0 2.3,-1.15 4.6,2.3 5.75,3.45 -1.15,-1.15 -3.45,0 -3.45,0 -2.3,0 -2.3,2.3 -3.45,1.15 -2.3,-2.3 -5.75,4.6 -8.05,5.75 0,-2.3 -1.15,-4.6 -3.45,-5.75 -2.3,0 -5.75,1.15 -8.05,2.3 -3.45,0 -6.9,1.15 -10.35,1.15 -1.15,0 0,5.75 0,6.9 -1.15,6.9 0,14.95 -1.15,21.85 0,2.3 1.15,5.75 0,6.9 -1.15,2.3 -4.6,1.15 -5.75,1.15 -3.45,0 -2.3,2.3 -2.3,4.6 0,3.45 0,6.9 0,11.5 -1.15,8.05 -1.15,16.1 -1.15,24.15 0,6.9 0,14.95 0,21.85 0,2.3 -2.3,2.3 -4.6,3.45 0,0 0,1.15 -1.15,1.15 -1.15,0 -1.15,1.15 -1.15,2.3 -1.15,0 -1.15,-1.15 -3.45,-1.15 -2.3,0 -3.45,1.15 -5.75,0 -1.15,0 -2.3,0 -2.3,-1.15 -1.15,0 -1.15,0 -2.3,1.15 0,-1.15 0,-1.15 0,-1.15 -2.3,-1.15 -2.3,-2.3 -2.3,-3.45 0,-1.15 -2.3,-3.45 -2.3,-3.45 -2.3,1.15 -1.15,3.45 -2.3,4.6 -1.15,0 -3.45,1.15 -4.6,0 -1.15,-1.15 -3.45,-3.45 -4.6,-4.6 -1.15,-2.3 -2.3,-4.6 -2.3,-5.75 -1.15,-1.15 -1.15,-2.3 -1.15,-3.45 0,-1.15 -1.15,-2.3 -1.15,-2.3 0,-2.3 0,-3.45 -1.15,-4.6 0,-1.15 0,-1.15 0,-2.3 0,-1.15 -1.15,-2.3 -1.15,-4.6 0,0 0,-1.15 0,-2.3 0,-1.15 0,-3.45 0,-4.6 0,-2.3 -1.15,-4.6 -2.3,-6.9 -1.15,-2.3 0,-4.6 -1.15,-6.9 0,-1.15 0,-3.45 0,-4.6 0,-1.15 1.15,-4.6 1.15,-4.6 0,-2.3 -1.15,-4.6 -2.3,-6.9 -1.15,-1.15 -2.3,-1.15 -2.3,-2.3 -1.15,-1.15 -1.15,-2.3 -2.3,-3.45 -3.45,-4.6 -3.45,-9.2 -5.75,-13.8 -2.3,-4.6 -3.45,-10.35 -6.9,-13.8 -4.6,-3.45 -4.6,-9.2 -4.6,-13.8"
     id="na"
      />
  <path
     class="land za"
     d="m 286.32727,679.87137 c 1.15,-1.15 2.3,-1.15 2.3,-2.3 0,-1.15 1.15,-2.3 2.3,-3.45 1.15,0 1.15,2.3 2.3,2.3 1.15,0 0,2.3 0,3.45 2.3,2.3 4.6,2.3 6.9,2.3 1.15,1.15 3.45,0 5.75,0 1.15,0 2.3,1.15 3.45,1.15 -1.15,-2.3 1.15,-2.3 1.15,-2.3 1.15,0 1.15,-1.15 2.3,-2.3 1.15,0 3.45,0 3.45,-1.15 0,-2.3 0,-4.6 0,-6.9 0,-9.2 1.15,-19.55 0,-28.75 1.15,1.15 3.45,2.3 3.45,3.45 1.15,1.15 2.3,3.45 2.3,5.75 1.15,1.15 2.3,3.45 1.15,5.75 -1.15,2.3 -2.3,3.45 -1.15,5.75 2.3,-2.3 6.9,1.15 9.2,0 0,-1.15 0,-2.3 0,-2.3 1.15,0 1.15,0 2.3,0 1.15,-1.15 1.15,-2.3 3.45,-3.45 1.15,-1.15 2.3,-2.3 3.45,-4.6 0,-1.15 0,-3.45 1.15,-4.6 1.15,-1.15 3.45,-1.15 4.6,0 1.15,0 3.45,2.3 4.6,2.3 2.3,0 5.75,3.45 8.05,1.15 1.15,0 3.45,1.15 4.6,0 1.15,-1.15 2.3,-3.45 2.3,-4.6 1.15,-1.15 1.15,-2.3 1.15,-3.45 0,-1.15 -1.15,-1.15 1.15,-1.15 1.15,-1.15 3.45,-1.15 3.45,-2.3 1.15,-1.15 3.45,-2.3 4.6,-3.45 0,-2.3 0,-3.45 1.15,-5.75 1.15,-1.15 2.3,-1.15 3.45,-2.3 1.15,-1.15 3.45,-2.3 4.6,-3.45 1.15,-1.15 1.15,-3.45 2.3,-4.6 1.15,0 3.45,0 4.6,-1.15 1.15,0 1.15,-1.15 2.3,-1.15 0,-1.15 2.3,-2.3 3.45,-2.3 3.45,0 5.75,2.3 9.2,2.3 3.45,0 6.9,-1.15 8.05,2.3 0,2.3 1.15,4.6 1.15,6.9 0,2.3 1.15,4.6 2.3,6.9 1.15,3.45 1.15,8.05 1.15,11.5 0,2.3 0,4.6 -1.15,5.75 -1.15,1.15 1.15,11.5 1.15,11.5 2.3,1.15 3.45,0 5.75,0 -1.15,4.6 -2.3,8.05 -3.45,12.65 0,2.3 -1.15,6.9 -4.6,6.9 0,1.15 -1.15,1.15 -2.3,1.15 0,0 -1.15,1.15 -1.15,1.15 -2.3,2.3 -4.6,4.6 -4.6,8.05 -1.15,1.15 -2.3,2.3 -2.3,3.45 -1.15,2.3 -3.45,3.45 -4.6,5.75 -2.3,3.45 -4.6,5.75 -8.05,8.05 -2.3,2.3 -3.45,5.75 -6.9,8.05 -3.45,2.3 -6.9,5.75 -10.35,8.05 -2.3,2.3 -5.75,4.6 -9.2,5.75 -1.15,0 -3.45,-1.15 -4.6,-1.15 -1.15,1.15 -3.45,2.3 -1.15,3.45 -2.3,1.15 -4.6,-2.3 -6.9,0 -2.3,1.15 -2.3,2.3 -5.75,1.15 -2.3,-1.15 -4.6,-2.3 -6.9,-1.15 -1.15,0 -1.15,1.15 -2.3,0 -1.15,0 -2.3,1.15 -3.45,0 0,0 0,0 0,0 -2.3,0 -5.75,1.15 -6.9,3.45 -1.15,1.15 -6.9,0 -8.05,0 -1.15,1.15 -2.3,0 -3.45,1.15 -1.15,0 -2.3,1.15 -3.45,2.3 -1.15,1.15 -1.15,1.15 -2.3,0 -1.15,0 -1.15,0 -2.3,0 -1.15,0 -1.15,-1.15 -2.3,-1.15 2.3,-2.3 -3.45,-2.3 -3.45,-2.3 0,-2.3 0,-3.45 -2.3,-3.45 -1.15,1.15 -1.15,2.3 -1.15,3.45 -2.3,-1.15 0,-4.6 0,-5.75 0,-1.15 0,-2.3 -1.15,-3.45 0,0 -3.45,-4.6 -1.15,-2.3 -1.15,-1.15 -1.15,-2.3 -2.3,-2.3 -1.15,0 0,-2.3 1.15,-2.3 2.3,1.15 2.3,-2.3 3.45,-3.45 0,-4.6 -1.15,-6.9 -3.45,-10.35 -2.3,-4.6 -4.6,-9.2 -6.9,-13.8 0,-2.3 -1.15,-4.6 -1.15,-6.9 -1.15,-2.3 -3.45,-4.6 -3.45,-6.9"
     id="za"
      />
  <path
     class="land eg"
     d="m 355.32727,96.821358 c -1.15,-2.3 2.3,-5.75 2.3,-8.05 -1.15,-3.45 -3.45,-5.75 0,-8.05 1.15,2.3 3.45,1.15 4.6,1.15 2.3,-1.15 3.45,0 5.75,0 3.45,0 5.75,1.15 8.05,1.15 1.15,0 1.15,1.15 2.3,2.3 1.15,0 1.15,0 2.3,0 1.15,0 1.15,0 1.15,1.15 1.15,0 2.3,0 3.45,0 2.3,0 3.45,1.15 5.75,2.3 2.3,0 4.6,-1.15 5.75,-2.3 1.15,-1.15 2.3,-2.3 2.3,-2.3 1.15,0 1.15,0 2.3,0 0,0 0,0 -1.15,0 1.15,0 2.3,-1.15 2.3,-2.3 1.15,1.15 2.3,0 4.6,0 -1.15,0 -2.3,0 -3.45,1.15 1.15,0 5.75,-2.3 3.45,-2.3 2.3,0 3.45,2.3 5.75,1.15 0,0 1.15,0 2.3,0 1.15,0 1.15,1.15 2.3,2.3 -1.15,-1.15 -1.15,-2.3 -2.3,-2.3 0,1.15 -1.15,2.3 0,3.45 1.15,0 1.15,0 2.3,1.15 0,0 2.3,-1.15 0,-2.3 2.3,0 3.45,2.3 5.75,2.3 0,0 3.45,-2.3 2.3,0 1.15,-1.15 3.45,0 4.6,-1.15 2.3,0 3.45,0 4.6,-1.15 1.15,3.45 2.3,6.9 4.6,10.35 0,1.15 3.45,5.750002 1.15,8.050002 -1.15,2.3 0,5.75 -1.15,8.05 -1.15,2.3 -1.15,3.45 -1.15,4.6 0,1.15 -1.15,2.3 -1.15,4.6 -1.15,-1.15 -2.3,-1.15 -2.3,-2.3 -2.3,-1.15 -2.3,-2.3 -3.45,-3.45 -1.15,-1.15 -3.45,-2.3 -3.45,-4.6 0,-2.3 -2.3,-3.45 -3.45,-5.75 -1.15,-2.3 -2.3,-4.600002 -2.3,-6.900002 -1.15,1.15 -2.3,3.450002 -1.15,4.600002 1.15,2.3 1.15,4.6 2.3,6.9 2.3,2.3 3.45,4.6 4.6,6.9 1.15,0 2.3,1.15 2.3,1.15 1.15,1.15 2.3,3.45 0,2.3 1.15,1.15 0,2.3 1.15,3.45 1.15,1.15 2.3,2.3 2.3,3.45 1.15,1.15 1.15,2.3 2.3,2.3 0,1.15 -1.15,1.15 -1.15,2.3 0,0 1.15,1.15 1.15,2.3 1.15,1.15 2.3,2.3 2.3,3.45 2.3,4.6 4.6,9.2 6.9,13.8 1.15,1.15 2.3,2.3 3.45,4.6 1.15,1.15 2.3,1.15 3.45,3.45 0,0 -1.15,0 -2.3,-1.15 0,2.3 0,5.75 1.15,8.05 0,1.15 -1.15,3.45 -3.45,3.45 -1.15,0 -2.3,0 -2.3,1.15 0,0 0,1.15 -1.15,2.3 0,1.15 0,2.3 -1.15,2.3 -1.15,0 -3.45,0 -4.6,1.15 0,2.3 0,3.45 -2.3,4.6 -2.3,0 -3.45,-3.45 -5.75,-3.45 -4.6,-1.15 -10.35,1.15 -14.95,0 1.15,0 1.15,-1.15 1.15,-1.15 -1.15,-1.15 -2.3,0 -2.3,1.15 -1.15,1.15 -5.75,0 -8.05,0 -5.75,0 -12.65,0 -18.4,0 -5.75,0 -12.65,0 -18.4,0 -2.3,0 -5.75,1.15 -9.2,0 0,0 0,-5.75 0,-6.9 -1.15,-12.65 -1.15,-24.15 -1.15,-36.8 0,-6.9 0,-12.65 0,-18.4 -1.15,-3.45 0,-5.75 -1.15,-9.2 0,-2.3 -1.15,-5.750002 -2.3,-8.050002"
     id="eg"
      />
  <g
     transform="matrix(1.15,0,0,1.15,-1352.4228,-529.92865)"
     class="land coast tz"
     id="tz"
     >
    <path
       d="m 1600,857 c 0,2 0,2 2,3 1,1 1,-3 -1,-2 0,-1 0,-3 0,-4 -1,1 -2,2 -1,3"
       id="path4894"
        />
    <path
       d="m 1603,874 c 1,-1 2,-1 1,-3 0,1 -1,1 -1,3"
       id="path4896"
        />
    <path
       d="m 1603,848 c 0,1 1,2 0,2 0,0 1,0 1,0 -2,1 0,2 0,1 1,-2 1,-3 -1,-4 0,0 0,1 0,1"
       id="path4898"
        />
    <path
       class="land tz"
       d="m 1525,848 c -1,-2 0,-3 0,-5 2,0 4,0 5,-2 1,-1 2,-2 3,-3 1,-1 -1,-2 0,-2 0,-1 1,-1 1,-1 0,-1 1,-2 2,-2 1,-1 -1,-2 0,-3 -2,1 -4,0 -2,-2 -2,0 -1,-1 0,-2 0,-1 2,0 2,-1 1,-2 0,-6 -1,-8 -1,-1 -3,-3 -1,-3 3,-1 5,-1 7,-1 4,0 7,0 10,0 3,0 6,0 9,0 2,1 5,3 7,4 3,2 5,4 8,6 3,1 6,3 8,5 2,1 5,2 5,4 1,1 0,1 0,2 0,1 1,2 1,2 1,2 4,3 5,5 1,1 6,3 6,5 0,2 -1,4 -2,6 0,1 -1,2 -1,3 0,0 -1,1 -1,1 0,1 1,2 1,2 -1,3 4,3 3,6 2,-1 2,2 1,3 -1,2 0,4 -1,5 1,-1 1,2 1,3 -1,1 -1,2 -1,3 0,2 2,3 1,4 1,0 0,2 1,2 1,-1 0,1 0,1 0,2 1,2 1,3 0,0 0,1 0,1 1,1 1,2 0,2 1,0 2,1 2,2 0,-2 2,1 3,1 0,3 -4,5 -6,6 -1,0 -2,1 -3,1 -1,0 -2,0 -3,0 -1,1 -2,2 -3,2 -1,1 -2,-1 -3,-1 -2,1 -2,3 -3,3 -2,1 -3,1 -5,0 -2,-1 -2,1 -3,1 -2,0 -3,0 -4,-1 -1,-1 -2,-2 -3,-1 -1,1 -4,1 -5,1 -1,0 -1,-1 -1,-1 0,-1 -1,-2 -2,-3 0,-1 0,-2 0,-4 0,-1 0,-3 -1,-5 0,-2 -1,-3 -3,-5 -1,-1 -1,1 -1,2 -2,-2 -3,0 -4,-2 -1,0 -2,-1 -3,-1 -1,0 -2,-1 -3,-1 0,0 -1,-1 -1,-1 0,0 -1,0 -2,0 0,-1 -1,-1 -2,-1 0,0 0,-1 -1,-1 0,-1 -1,0 -1,-1 -1,0 -1,-1 -1,-1 -1,-1 -2,-1 -3,-1 -3,-1 -4,-6 -5,-8 -1,-3 -1,-6 -4,-8 -2,-1 -4,-4 -3,-6 0,-2 1,-3 0,-4 0,-2 -1,-3 -1,-5"
       id="path5432"
       />
  </g>
  <g
     transform="matrix(1.15,0,0,1.15,-1352.4228,-529.92865)"
     class="land coast gq"
     id="gq">
    <path
       d="m 1367,777 c 0,-1 3,-5 1,-5 -1,0 -2,1 -2,2 0,0 -1,1 -1,1 -1,1 1,2 2,2"
       id="path5778"
        />
    <path
       class="land gq"
       d="m 1374,791 c 0,0 1,0 1,0 -2,1 0,-2 0,-2 1,-2 0,-3 0,-5 1,3 5,2 7,2 1,0 2,0 3,0 2,0 2,-1 2,2 0,2 0,4 0,6 0,2 -1,2 -3,2 -2,0 -4,0 -6,0 -1,0 -3,1 -2,-1 -1,0 -3,1 -4,0 -1,-1 2,-3 2,-4"
       id="path5784"
        />
  </g>
  <path
     class="land ls"
     d="m 374.87727,690.22137 c 1.15,1.15 1.15,2.3 2.3,3.45 0,1.15 0,2.3 1.15,3.45 1.15,1.15 3.45,4.6 4.6,3.45 1.15,-1.15 2.3,-3.45 2.3,-4.6 1.15,-1.15 2.3,-1.15 3.45,-1.15 1.15,0 3.45,-1.15 3.45,-2.3 1.15,-1.15 1.15,-2.3 2.3,-3.45 0,0 1.15,-1.15 1.15,-2.3 -1.15,-2.3 -1.15,-2.3 -3.45,-3.45 -1.15,-1.15 -2.3,-2.3 -2.3,-3.45 -1.15,-1.15 -3.45,1.15 -3.45,1.15 -1.15,0 -2.3,1.15 -2.3,1.15 -1.15,1.15 -2.3,0 -3.45,1.15 -1.15,1.15 -1.15,3.45 -2.3,4.6 -1.15,1.15 -2.3,1.15 -3.45,2.3"
     id="ls"
      />
  <path
     
     d="m 410.09987,405.96677 c -1.00625,-0.094 -2.01793,2.6227 -3.02418,3.629 -1.15,1.15 -1.14248,-1.1425 -1.14248,-1.1425 -1.14999,0 -2.28494,1.1425 -2.28494,1.1425 -3.44999,1.15 -4.63708,2.3296 -4.63708,5.7796 0,1.15 -2.28494,3.4198 -2.28494,4.5698 0,1.15 1.14247,2.3522 1.14247,2.3522 0.29232,-0.6515 0.16107,-0.4722 0,0 0,1.15 1.13494,2.2774 2.28494,3.4274 l 0,2.2849 c 0,2.3 -1.15,5.7721 0,6.9221 1.14999,1.15 1.14247,3.4198 1.14247,4.5698 1.15,1.15 3.48709,0.01 4.63708,-1.1424 1.15,-1.15 2.27742,-1.1274 3.42742,-3.4274 l 1.14247,-1.1425 c 0,-1.15 -1.15,-2.3446 0,-3.4946 l 1.14247,0 1.20967,-2.285 c 1.15,-1.15 -0.009,-2.2774 1.14247,-3.4274 -1.14999,1.15 -1.20215,0 -2.35214,0 -2.3,0 0,-2.2774 0,-3.4274 -2.05275,1.0264 -0.43738,-0.7493 -0.0671,-1.9489 1.58066,0.3291 2.41935,-0.7815 2.41935,-2.6882 1.15,-1.15 0.009,-4.6295 -1.14247,-5.7795 -1.15,-1.15 -2.35215,-3.4199 -2.35215,-4.5699 -0.14365,-0.1437 -0.25948,-0.1882 -0.40322,-0.2015 z"
     id="bi"
     sodipodi:nodetypes="csccsscccsscsccccccscccscc" />
  <path
     class="land dj"
     d="m 509.42727,285.42147 c 0,-2.3 -1.15,-5.75 0,-8.05 1.15,-1.15 2.3,-3.45 3.45,-4.6 1.15,-2.3 2.3,-1.15 3.45,-1.15 1.15,0 1.15,-1.15 1.15,-1.15 1.15,-1.15 2.3,-1.15 2.3,-1.15 1.15,1.15 4.6,4.6 2.3,6.9 0,0 -2.3,1.15 -4.6,2.3 -1.15,0 -1.15,1.15 -2.3,2.3 1.15,1.15 3.45,-1.15 4.6,-1.15 2.3,1.15 0,3.45 0,4.6 -1.15,2.3 -2.3,0 -4.6,1.15 -1.15,0 -4.6,2.3 -5.75,0"
     id="dj"
      />
  <g
     id="canaryIslands"
     transform="translate(-1140.678,-483.48029)">
    <path
       d="m 1133.7552,603.30165 c -1.15,0 0,-1.15 1.15,-1.15 0,1.15 -1.15,1.15 -1.15,1.15"
       id="path5984"
        />
    <path
       d="m 1136.0552,595.25165 c 0,0 0,0 -1.15,0 0,-1.15 -1.15,-3.45 0,-3.45 2.3,0 2.3,2.3 1.15,3.45"
       id="path5986"
        />
    <path
       d="m 1140.6552,599.85165 c -1.15,0 -1.15,-1.15 0,-1.15 1.15,0 1.15,1.15 0,1.15"
       id="path5988"
        />
    <path
       d="m 1145.2552,601.00165 c -1.15,-1.15 -1.15,-3.45 -2.3,-4.6 3.45,0 4.6,-1.15 6.9,-2.3 0,2.3 -2.3,5.75 -4.6,6.9"
       id="path5990"
        />
    <path
       d="m 1154.4552,603.30165 c -2.3,-1.15 -2.3,-3.45 0,-4.6 2.3,0 2.3,3.45 0,4.6"
       id="path5992"
        />
    <path
       d="m 1164.8052,599.85165 c 0,0 0,0 0,0 2.3,-1.15 2.3,-4.6 4.6,-6.9 1.15,-1.15 0,3.45 0,3.45 -1.15,2.3 -3.45,2.3 -4.6,3.45"
       id="path5994"
        />
    <path
       d="m 1170.5552,591.80165 c 0,0 -1.15,0 -1.15,0 0,-1.15 3.45,-4.6 3.45,-2.3 1.15,1.15 -2.3,1.15 -2.3,2.3"
       id="path5996"
        />
  </g>
  <path
     class="land mw"
     d="m 428.92727,531.52137 c 1.15,-1.15 4.6,-6.9 2.3,-9.2 -1.15,-1.15 4.6,-2.3 5.75,-3.45 -3.45,-1.15 -2.3,-6.8999 -2.3,-9.1999 0,-2.3 1.15,-2.3 0,-4.6 -1.15,-2.3 1.15,-1.15 2.3,-2.3 1.15,-2.3 1.15,-5.75 -1.15,-6.9 -1.15,0 0,-2.3 -1.15,-3.45 -1.15,-2.3 -3.45,-1.15 -2.3,-3.45 0,0 2.3,1.15 3.45,1.15 1.15,1.15 3.45,0 4.6,2.3 1.15,-2.3 0,-3.45 2.3,-1.15 1.15,1.15 3.45,3.45 3.45,5.75 0,1.15 -1.15,2.3 0,4.6 1.15,1.15 0,2.3 0,3.45 0,2.3 3.45,3.45 3.45,5.75 -1.15,0 -2.3,-1.15 -3.45,0 0,0 0,2.3 -1.15,3.45 -1.15,2.2999 -1.15,4.5999 0,6.8999 0,1.15 0,2.3 0,3.45 0,1.15 0,3.45 1.15,4.6 2.3,1.15 3.45,2.3 4.6,4.6 1.15,1.15 3.45,3.45 4.6,4.6 1.15,2.3 1.15,4.6 0,6.9 0,2.3 1.15,4.6 0,6.9 0,1.15 0,2.3 -1.15,3.45 -1.15,0 -2.3,0 -3.45,1.15 0,0 0,1.15 -1.15,2.3 0,1.15 -1.15,1.15 0,1.15 1.15,1.15 1.15,2.3 1.15,3.45 0,0 0,1.15 0,2.3 -1.15,0 -2.3,0 -2.3,-1.15 0,-1.15 1.15,-1.15 -1.15,-2.3 -1.15,-1.15 -4.6,-4.6 -4.6,-6.9 0,-1.15 0,-1.15 0,-2.3 -1.15,-1.15 0,-1.15 1.15,-2.3 0,-1.15 -1.15,-1.15 0,-2.3 1.15,-1.15 1.15,-2.3 1.15,-3.45 0,-2.3 0,-4.6 -1.15,-6.9 -1.15,0 -2.3,0 -3.45,1.15 -1.15,0 -3.45,0 -3.45,1.15 0,-1.15 -4.6,-5.75 -4.6,-5.75 -1.15,0 -3.45,-2.3 -3.45,-3.45 z"
     id="mw"
      />
  <path
     class="land ma"
     d="m 34.477268,119.82136 c 0,0 1.15,-2.3 2.3,-2.3 1.15,-1.15 3.45,-1.15 4.6,-1.15 3.45,-1.15 5.75,-1.15 9.2,-3.45 2.3,-2.3 4.6,-4.6 6.9,-6.9 2.3,-1.15 3.45,-4.6 5.75,-6.900002 1.15,-1.15 4.6,-5.75 1.15,-8.05 0,0 -1.15,0 0,-1.15 0,-2.3 0,-3.45 0,-4.6 0,-3.45 1.15,-5.75 3.45,-8.05 2.3,-1.15 1.15,-3.45 2.3,-5.75 0,-1.15 1.15,-2.3 2.3,-2.3 2.3,-2.3 3.45,-4.6 6.9,-5.75 2.3,-2.3 5.75,-2.3 8.05,-4.6 5.750001,-3.45 9.200001,-10.35 10.350001,-16.1 1.15,-1.15 1.15,-3.45 2.300001,-3.45 1.15,0 2.3,0 3.45,-1.15 1.15,0 1.15,1.15 1.15,2.3 1.15,1.15 1.15,2.3 3.45,3.45 2.3,2.3 4.6,1.15 8.05,1.15 2.3,-1.15 5.75,1.15 8.05,-2.3 0,1.15 0,1.15 0,2.3 0,1.15 2.3,1.15 0,0 1.15,1.15 2.3,1.15 3.45,1.15 1.15,-1.15 2.3,0 2.3,1.15 1.15,0 2.3,1.15 3.45,2.3 0,1.15 -1.15,2.3 1.15,2.3 -1.15,1.15 -1.15,2.3 -1.15,3.45 0,1.15 0,2.3 0,3.45 0,1.15 1.15,2.3 1.15,3.45 -1.15,2.3 -1.15,2.3 0,4.6 1.15,0 0,1.15 1.15,2.3 0,1.15 1.15,1.15 2.3,2.3 2.3,1.15 -3.45,3.45 -1.15,4.6 -2.3,0 -12.65,-3.45 -14.95,1.15 0,2.3 -2.3,2.3 -4.6,2.3 -2.3,0 -3.45,2.3 -1.15,3.45 -2.3,1.15 1.15,3.45 0,3.45 -1.15,1.15 -2.3,1.15 -3.45,1.15 -1.15,1.15 -2.3,2.3 -3.45,3.45 -1.15,0 -2.3,0 -3.45,0 -1.15,1.15 -2.3,3.45 -3.45,4.6 -1.15,2.3 -4.600001,2.3 -6.900001,3.45 -1.15,0 -3.45,-1.15 -3.45,1.150002 -1.150001,2.3 -3.450001,0 -4.600001,0 -1.15,0 -2.3,1.15 -3.45,2.3 0,0 -1.15,0 -2.3,0 -1.15,1.15 -1.15,2.3 -2.3,2.3 -1.15,1.15 -2.3,2.3 -3.45,2.3 -1.15,1.15 -3.45,2.3 -3.45,4.6 0,2.3 0,5.75 0,8.05 0,1.15 -34.5,0 -37.95,0"
     id="ma"
      />
  <path
     class="land lr"
     d="m 42.527268,326.82147 c 1.15,-1.15 1.15,-2.3 2.3,-3.45 1.15,-2.3 3.45,-3.45 4.6,-4.6 1.15,-1.15 0,-2.3 1.15,-3.45 1.15,-1.15 2.3,-1.15 2.3,-3.45 1.15,-1.15 1.15,-1.15 3.45,-1.15 0,0 1.15,0 1.15,0 1.15,0 2.3,1.15 2.3,1.15 0,1.15 0,1.15 1.15,2.3 0,0 -1.15,1.15 0,1.15 0,2.3 0,4.6 -1.15,6.9 2.3,-1.15 3.45,0 3.45,1.15 2.3,0 3.45,-1.15 3.45,-3.45 0,0 0,-1.15 1.15,-1.15 1.15,0 1.15,1.15 1.15,2.3 1.15,2.3 1.15,3.45 1.15,5.75 0,1.15 -3.45,4.6 0,4.6 -1.15,1.15 3.45,1.15 4.6,2.3 0,1.15 0,2.3 1.15,2.3 1.15,0 2.3,1.15 2.3,2.3 1.15,2.3 0,3.45 0,5.75 -1.15,2.3 -2.3,4.6 -1.15,8.05 -1.15,0 -2.3,-1.15 -3.45,-1.15 -1.15,-1.15 -3.45,-1.15 -4.6,-2.3 -2.3,-2.3 -5.75,-2.3 -8.05,-4.6 -2.3,-3.45 -4.6,-5.75 -6.9,-8.05 0,-1.15 -6.9,-3.45 -4.6,-4.6 -1.15,0 -2.3,-1.15 -3.45,-2.3 -2.3,0 -2.3,-1.15 -3.45,-2.3"
     id="lr"
      />
  <path
     class="land zw"
     d="m 363.37727,572.92137 c 1.15,0 2.3,0 3.45,0 1.15,-1.15 1.15,1.15 2.3,1.15 1.15,1.15 1.15,0 2.3,0 1.15,-1.15 2.3,0 3.45,1.15 2.3,1.15 3.45,-1.15 5.75,-3.45 1.15,-2.3 3.45,-3.45 4.6,-6.9 0,-1.15 1.15,-1.15 2.3,-1.15 1.15,-1.15 2.3,-2.3 3.45,-2.3 3.45,-2.3 3.45,-2.3 3.45,-5.75 0,-1.15 3.45,-3.45 4.6,-3.45 1.15,-1.15 2.3,-1.15 4.6,-1.15 1.15,0 3.45,0 4.6,0 0,3.45 0,3.45 3.45,3.45 2.3,0 4.6,0 5.75,1.15 1.15,1.15 3.45,1.15 3.45,2.3 1.15,1.15 3.45,1.15 4.6,1.15 0,0 2.3,1.15 2.3,1.15 1.15,2.3 2.3,1.15 2.3,1.15 0,1.15 -1.15,2.3 0,4.6 1.15,1.15 0,2.3 0,4.6 1.15,1.15 0,3.45 0,5.75 0,1.15 1.15,2.3 0,2.3 -1.15,1.15 0,3.45 -1.15,3.45 -1.15,0 -1.15,0 -1.15,2.3 0,0 1.15,0 1.15,1.15 0,0 0,1.15 0,1.15 0,1.15 -1.15,1.15 -1.15,1.15 0,1.15 1.15,2.3 1.15,3.45 0,0 0,0 0,0 0,1.15 1.15,2.3 0,3.45 -1.15,2.3 -1.15,4.6 -3.45,4.6 -1.15,1.15 0,2.3 0,3.45 -1.15,2.3 -2.3,3.45 -1.15,4.6 -1.15,-1.15 -6.9,8.05 -8.05,9.2 -1.15,1.15 -2.3,2.3 -3.45,1.15 -1.15,-1.15 -3.45,0 -5.75,0 -1.15,0 -3.45,-1.15 -4.6,-1.15 -1.15,-1.15 -4.6,0 -4.6,-1.15 -1.15,-1.15 -1.15,0 -2.3,-1.15 -1.15,0 0,-1.15 -1.15,-2.3 -1.15,-2.3 -8.05,0 -9.2,-2.3 0,-2.3 -2.3,-4.6 -1.15,-6.9 0,-3.45 -1.15,-4.6 -3.45,-3.45 0,-3.45 -1.15,-4.6 -3.45,-5.75 -2.3,0 -4.6,-2.3 -6.9,-4.6 -1.15,-2.3 -1.15,-6.9 -3.45,-9.2 -1.15,-1.15 -4.6,-5.75 -3.45,-6.9"
     id="zw"
      />
  <g
     transform="matrix(1.15,0,0,1.15,-1352.4228,-529.92865)"
     class="land coast er"
     id="land-er"
     >
    <path
       d="m 1604,667 c 0,1 0,3 -1,2 1,1 3,1 4,1 -1,-1 -2,0 -2,-1 -1,-1 -1,-2 -1,-2"
       id="path6816"
       />
    <path
       class="land er"
       d="m 1577,674 c 1,-2 1,-3 1,-5 1,-1 2,-3 2,-4 1,-2 -1,-7 1,-8 1,0 3,0 3,0 1,-1 0,-2 1,-3 2,0 3,-1 4,-1 2,-1 2,-3 3,-4 3,4 4,9 5,14 1,1 1,2 1,3 1,1 1,2 1,3 1,1 2,1 2,2 0,1 0,3 1,3 1,0 -1,-3 0,-3 1,0 2,1 2,2 0,1 1,2 2,2 1,1 1,-1 3,1 1,1 1,2 2,2 2,0 3,1 4,3 1,1 2,3 3,4 1,0 1,1 2,1 0,0 2,2 1,1 1,0 1,2 1,3 0,0 1,0 2,1 0,0 3,4 3,2 2,2 0,2 -1,4 -1,2 -2,-1 -3,0 -1,1 -6,-7 -7,-8 -2,-2 -3,-3 -4,-5 -1,-2 -4,-2 -5,-3 -2,-2 -3,-1 -4,-2 -2,0 -4,0 -5,1 0,-1 -1,-2 -1,-2 0,0 -2,1 -3,2 -1,0 -2,0 -3,-1 -1,-2 -2,-2 -3,-3 -1,2 -1,4 -2,7 -1,-1 -2,-4 -3,-3 -1,0 -1,1 -2,1 -1,0 -2,-1 -3,0 -1,-2 -1,-5 -1,-7"
       id="er"
        />
  </g>
  <path
     class="land sz"
     d="m 408.22727,661.47137 c 0,0 0,0 0,0 1.15,1.15 1.15,0 2.3,1.15 0,1.15 1.15,2.3 1.15,2.3 1.15,1.15 3.45,2.3 5.75,1.15 0,0 0,0 0,-1.15 l 1.15,-2.3 2.3,0 -1.15,0 c -1.15,-8.05 1.15,-2.3 -1.15,-6.9 0,-1.15 -1.15,-2.3 -2.3,-3.45 l -3.45,0 c 0,1.15 -1.15,1.15 -2.3,3.45 0,0 0,1.15 0,1.15 -1.15,0 -1.15,3.45 -2.3,4.6 z"
     id="sz"
      />
  <g
     id="gm"
     transform="matrix(1.15,0,0,1.15,-1317.9228,-478.17865)"
     >
    <path
       class="land gm"
       d="m 1144,644 c 1,-1 1,-1 2,0 0,2 2,0 3,1 -2,-1 3,-2 4,-2 -2,0 -3,0 -5,1 -1,0 -2,0 -2,-1 -1,-1 0,-1 1,-1 2,0 4,0 7,0 0,0 0,-2 1,-1 1,0 2,-1 3,-1 1,0 1,1 1,1 1,1 1,0 2,0 0,1 0,2 1,2 1,0 1,0 2,-1 1,0 3,0 2,1 0,1 -1,2 -2,2 -2,1 -7,-3 -8,-2 -1,1 -1,1 -2,1 -1,0 -3,0 -3,1 0,1 -7,0 -7,2 0,-1 -1,-2 0,-3"
       id="gm-"
        />
    <path
       class="circle gm"
       d="m 1154,649 c 8,0 8,-12 0,-12 -7,0 -7,12 0,12"
       id="gm."
        />
  </g>
  <g
     id="km"
     transform="matrix(1.15,0,0,1.15,-1317.9228,-478.17865)"
     >
    <g
       transform="translate(-30,-45)"
       class="land coast km"
       id="km-"
       >
      <path
         d="m 1631,908 c 0,0 0,-1 0,-2 -1,-1 0,-2 -1,-3 -1,0 0,2 -1,3 0,1 1,1 2,2"
         id="path5750"
          />
      <path
         d="m 1634,912 c 0,-1 -1,-1 -2,-1 0,1 1,1 2,1"
         id="path5752"
          />
      <path
         d="m 1639,912 c 1,-2 -1,-2 -2,-2 0,1 1,1 2,2"
         id="path5754"
          />
    </g>
    <path
       class="circle km"
       d="m 1604,869 c 8,0 8,-12 0,-12 -8,0 -8,12 0,12"
       id="km."
        />
  </g>
  <g
     id="st"
     transform="matrix(1.15,0,0,1.15,-1317.9228,-478.17865)"
     >
    <g
       transform="translate(-30,-45)"
       class="land coast st"
       id="st-"
       >
      <path
         d="m 1350,804 c 1,0 2,0 2,-1 0,-1 0,-2 -1,-2 -2,1 -1,2 -1,3"
         id="path2898"
          />
      <path
         d="m 1357,791 c 0,0 0,-1 0,-1 -1,0 -1,1 0,1"
         id="path5384"
          />
    </g>
    <path
       class="circle st"
       d="m 1323,758 c 8,0 8,-12 0,-12 -8,0 -8,12 0,12"
       id="st."
        />
  </g>
  <g
     id="yt"
     transform="matrix(1.15,0,0,1.15,-1317.9228,-478.17865)"
     >
    <path
       class="land coast yt"
       d="m 1613,872 c 1,-1 2,-2 0,-2 0,0 0,1 0,2"
       id="yt-"
        />
    <path
       class="circle yt"
       d="m 1615,878 c 7,0 7,-12 0,-12 -8,0 -8,12 0,12"
       id="yt."
        />
  </g>
  <path
     d="m 450.75838,164.70376 c 0,1.15009 -2.2773,4.5775 -3.42741,3.42741 -2.3001,0 -2.28494,1.13486 -2.28494,2.28495 -1.1501,2.29935 -2.34541,3.42741 -3.49461,3.42741 -2.30021,0 -3.42742,1.19445 -3.42742,3.49461 -1.1501,4.59954 -5.77203,1.15009 -6.92202,0 -2.30021,-1.15008 -5.6972,-1.14247 -7.9973,-1.14247 -2.3001,0 -4.61511,1.15009 -8.0645,0 1.15011,0 1.15011,-3.44266 0,-1.14247 -1.1501,2.30017 -3.47945,1.14247 -5.77955,1.14247 l -16.0618,0 -33.40046,0 -53.88423,-0.72772 46.01416,26.16414 1.01525,37.80268 c -2.30021,-1.15 -3.48699,-1.15 -4.63709,0 -1.15011,0 -2.27731,-1.15 -3.42741,0 -2.30021,1.1493 0.009,3.4123 -1.14247,5.7124 -2.29931,1.1501 -2.33688,3.487 -4.63709,4.6371 -1.15,1.1501 0.0596,3.4198 1.20968,4.5699 -2.30011,2.2994 -4.65236,3.4718 -2.35215,6.922 0,1.1501 0.009,2.2782 -1.14247,3.4274 -2.3001,1.1501 -2.28494,2.3446 -2.28494,3.4947 1.1501,2.3001 3.41978,-0.01 4.56988,1.1424 1.15011,0 0,1.1349 0,2.285 1.15011,1.1501 1.20968,2.2773 1.20968,3.4274 1.1501,1.1501 0,3.487 0,4.6371 1.1501,1.1501 3.42741,1.1356 3.42741,2.2849 1.1501,2.3002 -1.15011,3.4198 0,4.5699 1.1501,2.3002 2.2773,3.487 3.42741,4.6371 2.3001,2.3001 3.49461,4.615 3.49461,8.0645 0,1.1501 -0.0604,3.4198 -1.20967,4.5699 0,0 -1.14247,1.1348 -1.14247,2.2849 l 1.14247,0 0,2.3521 c 1.14931,0 4.62945,-0.01 5.77956,1.1425 l 0,2.1505 0,0.1345 c 0,1.15 2.2773,1.1348 3.42741,2.2849 l 2.35214,0 c 1.15011,1.1493 1.13484,2.2849 2.28495,2.2849 1.14999,0 1.14247,1.2021 1.14247,2.3522 0,0 -1.15,1.1348 0,2.2849 1.1501,1.1501 3.41214,2.2774 5.71235,3.4274 2.3001,1.1501 1.20215,2.285 2.35214,2.285 0,1.1501 1.13484,1.202 2.28495,2.3521 0,1.1501 -1.15011,2.285 0,2.285 0,1.1493 1.14247,1.1348 1.14247,2.2849 0,1.1501 1.1272,2.2773 3.42741,3.4274 1.15,0 2.34451,1.2021 3.49461,2.3522 0,1.1493 -1.1501,2.2773 0,3.4274 1.15,1.1501 1.13564,2.2773 2.28495,3.4274 1.1501,0 1.13483,1.1357 2.28494,2.2849 0,1.1501 1.14247,1.2021 1.14247,2.3522 1.1501,0 1.13483,1.1424 2.28494,1.1424 1.15,1.1501 2.34451,0.01 3.49461,-1.1424 2.30011,-2.3002 2.26968,-0.01 4.56989,1.1424 2.2993,0 2.33698,-4.5842 4.63708,-2.2849 1.15011,0 1.14247,1.1349 1.14247,2.2849 1.15011,0 1.13484,1.1349 2.28495,2.285 1.14999,1.1501 5.71998,2.2697 4.56988,4.5699 1.1501,0 2.35214,0.06 2.35214,1.2096 1.15,-1.15 2.27731,-3.5022 3.42741,-2.3521 1.14921,0 2.27731,1.1425 3.42742,1.1425 0,-1.1501 2.35214,-2.2926 2.35214,-1.1425 1.15011,1.1501 1.13484,2.3521 2.28494,2.3521 0,-2.3001 5.70472,-2.3445 6.85483,-3.4946 1.1501,0 1.20294,-0.01 2.35214,1.1425 l 2.28494,0 c 1.15,0 2.28494,-1.1357 2.28494,-2.2849 2.30021,-1.1501 3.47182,-5.7124 6.92203,-5.7124 3.45021,-1.1501 8.03409,0 12.63438,0 -1.14999,-1.1501 -1.14247,-2.3445 -1.14247,-3.4946 l 0,-3.4274 c 0,0 0.009,-1.1425 -1.14247,-1.1425 -1.1501,0 -2.34451,-1.1501 -3.49461,0 0,0 0.009,-1.1425 -1.14247,-1.1425 0,-1.1493 -1.14248,-2.3521 -1.14248,-2.3521 -1.1501,-2.3002 -1.14247,-3.4122 -1.14247,-5.7124 -1.1501,-1.1492 -1.13483,-3.4274 -2.28494,-3.4274 -1.14999,-1.1501 -1.13483,-2.3445 -2.28494,-3.4946 -2.3001,-1.1501 -3.49461,-2.2781 -3.49461,-3.4274 -1.15011,-1.1501 -2.27742,-2.2773 -3.42742,-3.4274 -1.1501,0 -3.42057,-0.06 -4.56988,-1.2097 -2.3001,-1.1501 -0.006,-2.2781 1.14247,-3.4274 0,-1.1501 -1.15683,-2.2849 1.14247,-2.2849 l 3.42741,0 c 4.5995,0 3.43425,-5.7644 2.28495,-8.0645 0,-0.7584 0.0262,-1.5009 0.0671,-2.2178 0.0828,-1.4589 0.30478,-2.7905 1.07527,-3.5618 0,-2.2994 1.20967,-3.4122 1.20967,-5.7124 0,-2.3001 -0.009,-2.2705 1.14247,-4.5698 1.15011,-1.1501 2.28495,-0.01 2.28495,1.1424 1.1501,-1.15 2.28494,-1.202 2.28494,-2.3521 -1.15011,-1.1501 0,-3.4274 0,-3.4274 0,-2.2994 -0.0151,-5.772 2.28494,-6.922 1.1501,0 2.35214,-4.5623 2.35214,-5.7124 1.15,-2.3002 3.41989,-1.1425 4.56989,-1.1425 1.1493,0 1.14247,-3.487 1.14247,-4.6371 0,-2.2993 1.14247,-3.4121 1.14247,-5.7123 1.14999,-2.3002 1.14247,-5.7643 1.14247,-8.0645 -1.15,-2.3002 -1.14247,-4.6219 -1.14247,-6.922 1.14999,-2.3002 2.28494,-4.5547 2.28494,-6.8549 1.1501,-1.1501 1.20967,-2.3445 1.20967,-3.4946 1.15011,-1.1501 0,-2.2781 0,-3.4274 0,-1.1501 1.13495,-3.487 2.28494,-4.63714 l 2.28495,0 c 1.14999,-2.30017 1.1272,-3.42742 3.42741,-3.42742 1.1501,-1.15008 3.48777,-1.13485 4.63708,-2.28494 0,-1.15008 1.14247,-3.42741 1.14247,-3.42741 0,-2.29935 -2.28494,-1.19527 -2.28494,-3.49462 -1.1501,1.15009 -4.62945,-3.42741 -5.77955,-3.42741 -3.44939,-1.15012 -3.42742,-6.9068 -3.42742,-9.20697 -1.14999,-2.30021 -1.14247,-5.75671 -1.14247,-9.20697 0,-1.15008 0.009,-3.41979 -1.14247,-4.56988 0,-1.00632 0.85514,-2.01309 1.07527,-1.47849 -0.2043,-2.08799 -2.33299,-3.2555 -3.42741,-5.44354 0,-2.30018 1.16526,-3.41979 -2.28494,-4.56988 -1.14931,-2.30019 -2.26968,-4.62947 -4.56989,-5.77956 -2.3001,-1.1501 -3.48777,-1.11963 -4.63708,-4.56988 z"
     id="ss"
sodipodi:nodetypes="cccsccscssccccccccccccccccccccsccccccsccsccccccsccccccccccccccccccccscccscsccccccccccsscccsccccccsscccccsccccccccsccccccc" />
  <g
     transform="matrix(1.15,0,0,1.15,-211.74484,-820.64018)"
     class="land coast ng"
     id="g6245"
      />
  <path
     d="m 266.75341,264.70357 c 0,0.401 0.0524,0.9832 0.0672,1.5457 0.60877,1.0362 1.07526,2.0602 1.07526,3.0914 0,0.575 -0.25948,1.178 -0.40322,1.7473 0.007,0.021 -0.008,0.047 0,0.067 0.34847,0.9392 0.84617,1.6129 1.6129,1.6129 l 1.14247,0 c 0.34067,0.1704 0.57454,0.4112 0.73925,0.6721 0.64642,0.4348 1.01601,1.0001 0.40322,1.6129 l 0,3.4946 0,1.1425 c 0.30346,0.3034 0.19768,0.6773 -0.13441,1.0752 -0.34841,1.0504 -1.28574,1.3501 -2.35214,1.5457 -0.89007,0.4352 -1.73434,0.8065 -2.15054,0.8065 -0.81853,0 -1.64219,0.7537 -2.35214,1.7473 -0.0381,0.053 -0.0969,0.08 -0.13441,0.1344 -0.55774,1.015 -0.94086,2.0787 -0.94086,2.7554 -1.15,2.3 -1.13494,4.5548 -2.28494,6.8548 0,0 -1.14247,-0.01 -1.14247,1.1425 l 0,3.4946 -0.80645,0.7392 c -0.0567,0.1046 -0.1792,0.1649 -0.26882,0.2688 l -0.0672,0.1344 c -0.0385,0.038 -0.0958,0.031 -0.13441,0.067 l -2.21774,2.2177 c 1.15,0 0.01,3.4199 -1.14247,4.5699 0,0.8934 -0.38591,1.2135 -0.87365,1.4785 -0.0436,0.045 -0.0875,0.093 -0.13441,0.1344 -0.33645,0.2973 -0.76623,0.4828 -1.27688,0.6048 -0.0492,0.012 -0.0836,0.057 -0.13441,0.067 -0.37522,0.2558 -0.72055,0.6347 -1.00806,1.2097 0,0 -0.10621,0.065 -0.13441,0.067 -0.14843,0.2709 -0.46025,0.5275 -1.00806,1.0753 l 0,3.4274 c -1.15,2.3 -1.19462,4.622 -3.49462,6.922 -1.14999,1.15 0.008,2.2699 -1.14247,4.5699 -1.14999,0 -1.14247,1.2021 -1.14247,2.3521 l -1.41128,1.4113 c -0.26811,0.2917 -0.58617,0.5862 -0.87366,0.8737 0,0 -0.65522,0.4935 -1.47849,0.7392 -0.27443,0.082 -0.58615,0.1344 -0.87365,0.1344 l -7.32526,6.3172 c -0.8718,0.75 -2.41943,2.0909 -3.76343,5.2419 -1.08279,2.2774 -1.73989,9.8194 -2.88978,8.6694 0,0.9143 -0.87081,2.6756 -1.81451,3.3602 0.28751,0.054 0.58615,-0.049 0.87366,-0.336 0,0 -0.01,1.1424 1.14247,1.1424 l 0,-1.1424 0,-1.1425 c 1.14999,0 1.20214,1.15 2.35214,0 l -1.14247,1.1425 c 2.3,0 0,1.1349 0,2.2849 -0.98931,0.9893 0.55882,1.9536 1.74731,1.4785 -1.55,1.046 -0.50837,2.1126 0.53763,3.1586 1.15,1.15 0,3.4123 0,5.7123 -1.15,3.45 -0.023,5.7796 3.42741,5.7796 l 5.77956,0 3.42741,0 c 0,0 -0.01,-1.1425 1.14247,-1.1425 1.15,-1.15 3.48709,0 4.63709,0 l 5.71235,0 4.63709,0 c 1.15,0 -0.01,-0.01 1.14247,1.1425 l 1.14247,0 5.71235,0 c 1.15,0 3.48709,-1.15 4.63709,0 0,0 2.28494,1.15 2.28494,0 0,1.15 2.28494,1.1425 2.28494,1.1425 1.15,0 3.48709,1.1424 4.63709,1.1424 1.15,0 2.27741,1.135 3.42741,2.285 1.15,-1.15 -0.01,-5.7124 1.14247,-5.7124 0,-1.15 -1.14247,-3.4871 -1.14247,-4.6371 l 0,-2.2849 -1.14247,-1.1425 c -1.15,0 -1.13494,-1.1424 -2.28494,-1.1424 0,-1.15 -6.94461,-8.0645 -3.49462,-8.0645 -1.14999,-1.15 -1.13494,-2.2775 -2.28494,-3.4275 0,-1.15 -1.14247,-1.1349 -1.14247,-2.2849 -1.15,-1.15 -1.13494,-3.4796 -2.28494,-5.7796 l 0,-1.1424 0,-2.285 c 0,-2.3 0.01,-3.4871 -1.14247,-4.6371 -1.15,-2.2999 2.28494,-2.2774 2.28494,-3.4274 1.15,-1.15 1.14247,-2.2774 1.14247,-3.4274 1.15,-1.15 1.13494,-1.2096 2.28494,-1.2096 0,-2.3 1.13495,-4.5624 2.28494,-5.7124 0,-1.15 2.35968,-3.4274 1.20968,-3.4274 -1.15,-1.15 -1.20215,-5.772 -2.35215,-6.922 -1.14999,-1.15 -1.13494,-2.285 -2.28494,-2.285 l -6.92203,-6.922 c -2.29999,-2.3 -2.29999,-3.4796 0,-5.7796 1.15,-2.3 3.47957,0 5.77956,0 2.3,-1.15 4.62203,0.01 6.92203,-1.1424 -3.44999,-2.3 -5.77956,-5.7495 -5.77956,-10.3495 0,-2.3 2.3,-8.0494 0,-10.3494 -2.29999,-1.15 0.015,-4.5624 -2.28494,-5.7124 -2.29999,-1.15 -1.13494,-2.3446 -2.28494,-3.4946 -1.15,-1.15 -2.34462,-1.1425 -3.49462,-1.1425 z"
     id="cm"
      />
  </g>
</svg>
